solid 4
   facet normal -2.408000e-032 1.000000e+000 0.000000e+000
      outer loop
         vertex 1.182000e+000 1.449000e+000 -1.008000e+000
         vertex 2.016000e+000 1.449000e+000 -1.890000e+000
         vertex 8.820000e-001 1.449000e+000 -7.080000e-001
      endloop
   endfacet
   facet normal -2.408000e-032 1.000000e+000 0.000000e+000
      outer loop
         vertex 8.820000e-001 1.449000e+000 -7.080000e-001
         vertex 2.016000e+000 1.449000e+000 -1.890000e+000
         vertex 2.533707e-001 1.449000e+000 -2.533707e-001
      endloop
   endfacet
   facet normal -2.408000e-032 1.000000e+000 0.000000e+000
      outer loop
         vertex 8.820000e-001 1.449000e+000 -7.080000e-001
         vertex 2.533707e-001 1.449000e+000 -2.533707e-001
         vertex 8.820000e-001 1.449000e+000 7.080000e-001
      endloop
   endfacet
   facet normal -2.408000e-032 1.000000e+000 0.000000e+000
      outer loop
         vertex 8.820000e-001 1.449000e+000 7.080000e-001
         vertex 2.533707e-001 1.449000e+000 -2.533707e-001
         vertex 2.533707e-001 1.449000e+000 2.533707e-001
      endloop
   endfacet
   facet normal -2.408000e-032 1.000000e+000 0.000000e+000
      outer loop
         vertex 8.820000e-001 1.449000e+000 7.080000e-001
         vertex 2.533707e-001 1.449000e+000 2.533707e-001
         vertex 1.182000e+000 1.449000e+000 1.008000e+000
      endloop
   endfacet
   facet normal -2.408000e-032 1.000000e+000 0.000000e+000
      outer loop
         vertex 1.182000e+000 1.449000e+000 1.008000e+000
         vertex 2.533707e-001 1.449000e+000 2.533707e-001
         vertex 2.016000e+000 1.449000e+000 1.890000e+000
      endloop
   endfacet
   facet normal -2.408000e-032 1.000000e+000 0.000000e+000
      outer loop
         vertex 1.182000e+000 1.449000e+000 1.008000e+000
         vertex 2.016000e+000 1.449000e+000 1.890000e+000
         vertex 2.016000e+000 1.449000e+000 1.008000e+000
      endloop
   endfacet
   facet normal -2.408000e-032 1.000000e+000 0.000000e+000
      outer loop
         vertex -2.079000e+000 1.449000e+000 -1.890000e+000
         vertex -1.182000e+000 1.449000e+000 -1.008000e+000
         vertex -2.533707e-001 1.449000e+000 -2.533707e-001
      endloop
   endfacet
   facet normal -2.408000e-032 1.000000e+000 0.000000e+000
      outer loop
         vertex -2.533707e-001 1.449000e+000 -2.533707e-001
         vertex -1.182000e+000 1.449000e+000 -1.008000e+000
         vertex -8.820000e-001 1.449000e+000 -7.080000e-001
      endloop
   endfacet
   facet normal -2.408000e-032 1.000000e+000 0.000000e+000
      outer loop
         vertex -2.533707e-001 1.449000e+000 -2.533707e-001
         vertex -8.820000e-001 1.449000e+000 -7.080000e-001
         vertex -2.533707e-001 1.449000e+000 2.533707e-001
      endloop
   endfacet
   facet normal -2.408000e-032 1.000000e+000 0.000000e+000
      outer loop
         vertex -2.533707e-001 1.449000e+000 2.533707e-001
         vertex -8.820000e-001 1.449000e+000 -7.080000e-001
         vertex -8.820000e-001 1.449000e+000 7.080000e-001
      endloop
   endfacet
   facet normal -2.408000e-032 1.000000e+000 0.000000e+000
      outer loop
         vertex -2.533707e-001 1.449000e+000 2.533707e-001
         vertex -8.820000e-001 1.449000e+000 7.080000e-001
         vertex -1.182000e+000 1.449000e+000 1.008000e+000
      endloop
   endfacet
   facet normal -2.408000e-032 1.000000e+000 0.000000e+000
      outer loop
         vertex -2.079000e+000 1.449000e+000 -1.890000e+000
         vertex -2.533707e-001 1.449000e+000 -2.533707e-001
         vertex 2.016000e+000 1.449000e+000 -1.890000e+000
      endloop
   endfacet
   facet normal -2.408000e-032 1.000000e+000 0.000000e+000
      outer loop
         vertex 2.016000e+000 1.449000e+000 -1.890000e+000
         vertex -2.533707e-001 1.449000e+000 -2.533707e-001
         vertex 2.533707e-001 1.449000e+000 -2.533707e-001
      endloop
   endfacet
   facet normal -2.408000e-032 1.000000e+000 0.000000e+000
      outer loop
         vertex 2.016000e+000 1.449000e+000 1.890000e+000
         vertex 2.533707e-001 1.449000e+000 2.533707e-001
         vertex -2.079000e+000 1.449000e+000 1.890000e+000
      endloop
   endfacet
   facet normal -2.408000e-032 1.000000e+000 0.000000e+000
      outer loop
         vertex -2.079000e+000 1.449000e+000 1.890000e+000
         vertex 2.533707e-001 1.449000e+000 2.533707e-001
         vertex -2.533707e-001 1.449000e+000 2.533707e-001
      endloop
   endfacet
   facet normal -2.408000e-032 1.000000e+000 0.000000e+000
      outer loop
         vertex -2.079000e+000 1.449000e+000 1.890000e+000
         vertex -2.533707e-001 1.449000e+000 2.533707e-001
         vertex -1.182000e+000 1.449000e+000 1.008000e+000
      endloop
   endfacet
   facet normal -2.408000e-032 1.000000e+000 0.000000e+000
      outer loop
         vertex -2.079000e+000 1.449000e+000 -1.890000e+000
         vertex -2.079000e+000 1.449000e+000 -1.008000e+000
         vertex -1.182000e+000 1.449000e+000 -1.008000e+000
      endloop
   endfacet
   facet normal -2.408000e-032 1.000000e+000 0.000000e+000
      outer loop
         vertex -1.182000e+000 1.449000e+000 1.008000e+000
         vertex -2.079000e+000 1.449000e+000 1.008000e+000
         vertex -2.079000e+000 1.449000e+000 1.890000e+000
      endloop
   endfacet
   facet normal -2.408000e-032 1.000000e+000 0.000000e+000
      outer loop
         vertex 1.182000e+000 1.449000e+000 -1.008000e+000
         vertex 2.016000e+000 1.449000e+000 -1.008000e+000
         vertex 2.016000e+000 1.449000e+000 -1.890000e+000
      endloop
   endfacet
   facet normal -5.807914e-002 -9.983120e-001 0.000000e+000
      outer loop
         vertex -2.079000e+000 -9.536745e-010 1.008000e+000
         vertex -2.079000e+000 -9.536745e-010 1.890000e+000
         vertex -2.204808e+000 1.100683e-002 1.008000e+000
      endloop
   endfacet
   facet normal -1.161583e-001 -9.932307e-001 0.000000e+000
      outer loop
         vertex -2.204808e+000 1.100683e-002 1.008000e+000
         vertex -2.079000e+000 -9.536745e-010 1.890000e+000
         vertex -2.204808e+000 1.100683e-002 1.890000e+000
      endloop
   endfacet
   facet normal -2.305519e-001 -9.730600e-001 0.000000e+000
      outer loop
         vertex -2.204808e+000 1.100683e-002 1.008000e+000
         vertex -2.204808e+000 1.100683e-002 1.890000e+000
         vertex -2.326794e+000 4.369271e-002 1.008000e+000
      endloop
   endfacet
   facet normal -2.868663e-001 -9.579706e-001 0.000000e+000
      outer loop
         vertex -2.326794e+000 4.369271e-002 1.008000e+000
         vertex -2.204808e+000 1.100683e-002 1.890000e+000
         vertex -2.326794e+000 4.369271e-002 1.890000e+000
      endloop
   endfacet
   facet normal -3.960194e-001 -9.182422e-001 0.000000e+000
      outer loop
         vertex -2.326794e+000 4.369271e-002 1.008000e+000
         vertex -2.326794e+000 4.369271e-002 1.890000e+000
         vertex -2.441250e+000 9.706461e-002 1.008000e+000
      endloop
   endfacet
   facet normal -4.488580e-001 -8.936031e-001 0.000000e+000
      outer loop
         vertex -2.441250e+000 9.706461e-002 1.008000e+000
         vertex -2.326794e+000 4.369271e-002 1.890000e+000
         vertex -2.441250e+000 9.706461e-002 1.890000e+000
      endloop
   endfacet
   facet normal -5.494540e-001 -8.355240e-001 0.000000e+000
      outer loop
         vertex -2.441250e+000 9.706461e-002 1.008000e+000
         vertex -2.441250e+000 9.706461e-002 1.890000e+000
         vertex -2.544700e+000 1.695008e-001 1.008000e+000
      endloop
   endfacet
   facet normal -5.972114e-001 -8.020838e-001 0.000000e+000
      outer loop
         vertex -2.544700e+000 1.695008e-001 1.008000e+000
         vertex -2.441250e+000 9.706461e-002 1.890000e+000
         vertex -2.544700e+000 1.695008e-001 1.890000e+000
      endloop
   endfacet
   facet normal -6.861938e-001 -7.274188e-001 0.000000e+000
      outer loop
         vertex -2.544700e+000 1.695008e-001 1.008000e+000
         vertex -2.544700e+000 1.695008e-001 1.890000e+000
         vertex -2.633999e+000 2.588004e-001 1.008000e+000
      endloop
   endfacet
   facet normal -7.274188e-001 -6.861938e-001 0.000000e+000
      outer loop
         vertex -2.633999e+000 2.588004e-001 1.008000e+000
         vertex -2.544700e+000 1.695008e-001 1.890000e+000
         vertex -2.633999e+000 2.588004e-001 1.890000e+000
      endloop
   endfacet
   facet normal -8.020838e-001 -5.972114e-001 0.000000e+000
      outer loop
         vertex -2.633999e+000 2.588004e-001 1.008000e+000
         vertex -2.633999e+000 2.588004e-001 1.890000e+000
         vertex -2.706435e+000 3.622500e-001 1.008000e+000
      endloop
   endfacet
   facet normal -8.355240e-001 -5.494540e-001 0.000000e+000
      outer loop
         vertex -2.706435e+000 3.622500e-001 1.008000e+000
         vertex -2.633999e+000 2.588004e-001 1.890000e+000
         vertex -2.706435e+000 3.622500e-001 1.890000e+000
      endloop
   endfacet
   facet normal -8.936031e-001 -4.488580e-001 0.000000e+000
      outer loop
         vertex -2.706435e+000 3.622500e-001 1.008000e+000
         vertex -2.706435e+000 3.622500e-001 1.890000e+000
         vertex -2.759807e+000 4.767064e-001 1.008000e+000
      endloop
   endfacet
   facet normal -9.182422e-001 -3.960194e-001 0.000000e+000
      outer loop
         vertex -2.759807e+000 4.767064e-001 1.008000e+000
         vertex -2.706435e+000 3.622500e-001 1.890000e+000
         vertex -2.759807e+000 4.767064e-001 1.890000e+000
      endloop
   endfacet
   facet normal -9.579706e-001 -2.868663e-001 0.000000e+000
      outer loop
         vertex -2.759807e+000 4.767064e-001 1.008000e+000
         vertex -2.759807e+000 4.767064e-001 1.890000e+000
         vertex -2.792493e+000 5.986919e-001 1.008000e+000
      endloop
   endfacet
   facet normal -9.730600e-001 -2.305519e-001 0.000000e+000
      outer loop
         vertex -2.792493e+000 5.986919e-001 1.008000e+000
         vertex -2.759807e+000 4.767064e-001 1.890000e+000
         vertex -2.792493e+000 5.986919e-001 1.890000e+000
      endloop
   endfacet
   facet normal -9.932307e-001 -1.161583e-001 0.000000e+000
      outer loop
         vertex -2.792493e+000 5.986919e-001 1.008000e+000
         vertex -2.792493e+000 5.986919e-001 1.890000e+000
         vertex -2.803500e+000 7.245000e-001 1.008000e+000
      endloop
   endfacet
   facet normal -9.983120e-001 -5.807914e-002 0.000000e+000
      outer loop
         vertex -2.803500e+000 7.245000e-001 1.008000e+000
         vertex -2.792493e+000 5.986919e-001 1.890000e+000
         vertex -2.803500e+000 7.245000e-001 1.890000e+000
      endloop
   endfacet
   facet normal -9.983120e-001 5.807914e-002 0.000000e+000
      outer loop
         vertex -2.803500e+000 7.245000e-001 1.008000e+000
         vertex -2.803500e+000 7.245000e-001 1.890000e+000
         vertex -2.792493e+000 8.503081e-001 1.008000e+000
      endloop
   endfacet
   facet normal -9.932307e-001 1.161583e-001 0.000000e+000
      outer loop
         vertex -2.792493e+000 8.503081e-001 1.008000e+000
         vertex -2.803500e+000 7.245000e-001 1.890000e+000
         vertex -2.792493e+000 8.503081e-001 1.890000e+000
      endloop
   endfacet
   facet normal -9.730600e-001 2.305519e-001 0.000000e+000
      outer loop
         vertex -2.792493e+000 8.503081e-001 1.008000e+000
         vertex -2.792493e+000 8.503081e-001 1.890000e+000
         vertex -2.759807e+000 9.722936e-001 1.008000e+000
      endloop
   endfacet
   facet normal -9.579706e-001 2.868663e-001 0.000000e+000
      outer loop
         vertex -2.759807e+000 9.722936e-001 1.008000e+000
         vertex -2.792493e+000 8.503081e-001 1.890000e+000
         vertex -2.759807e+000 9.722936e-001 1.890000e+000
      endloop
   endfacet
   facet normal -9.182422e-001 3.960194e-001 0.000000e+000
      outer loop
         vertex -2.759807e+000 9.722936e-001 1.008000e+000
         vertex -2.759807e+000 9.722936e-001 1.890000e+000
         vertex -2.706435e+000 1.086750e+000 1.008000e+000
      endloop
   endfacet
   facet normal -8.936031e-001 4.488580e-001 0.000000e+000
      outer loop
         vertex -2.706435e+000 1.086750e+000 1.008000e+000
         vertex -2.759807e+000 9.722936e-001 1.890000e+000
         vertex -2.706435e+000 1.086750e+000 1.890000e+000
      endloop
   endfacet
   facet normal -8.355240e-001 5.494540e-001 0.000000e+000
      outer loop
         vertex -2.706435e+000 1.086750e+000 1.008000e+000
         vertex -2.706435e+000 1.086750e+000 1.890000e+000
         vertex -2.633999e+000 1.190200e+000 1.008000e+000
      endloop
   endfacet
   facet normal -8.020838e-001 5.972114e-001 0.000000e+000
      outer loop
         vertex -2.633999e+000 1.190200e+000 1.008000e+000
         vertex -2.706435e+000 1.086750e+000 1.890000e+000
         vertex -2.633999e+000 1.190200e+000 1.890000e+000
      endloop
   endfacet
   facet normal -7.274188e-001 6.861938e-001 0.000000e+000
      outer loop
         vertex -2.633999e+000 1.190200e+000 1.008000e+000
         vertex -2.633999e+000 1.190200e+000 1.890000e+000
         vertex -2.544700e+000 1.279499e+000 1.008000e+000
      endloop
   endfacet
   facet normal -6.861938e-001 7.274188e-001 0.000000e+000
      outer loop
         vertex -2.544700e+000 1.279499e+000 1.008000e+000
         vertex -2.633999e+000 1.190200e+000 1.890000e+000
         vertex -2.544700e+000 1.279499e+000 1.890000e+000
      endloop
   endfacet
   facet normal -5.972114e-001 8.020838e-001 0.000000e+000
      outer loop
         vertex -2.544700e+000 1.279499e+000 1.008000e+000
         vertex -2.544700e+000 1.279499e+000 1.890000e+000
         vertex -2.441250e+000 1.351935e+000 1.008000e+000
      endloop
   endfacet
   facet normal -5.494540e-001 8.355240e-001 0.000000e+000
      outer loop
         vertex -2.441250e+000 1.351935e+000 1.008000e+000
         vertex -2.544700e+000 1.279499e+000 1.890000e+000
         vertex -2.441250e+000 1.351935e+000 1.890000e+000
      endloop
   endfacet
   facet normal -4.488580e-001 8.936031e-001 0.000000e+000
      outer loop
         vertex -2.441250e+000 1.351935e+000 1.008000e+000
         vertex -2.441250e+000 1.351935e+000 1.890000e+000
         vertex -2.326794e+000 1.405307e+000 1.008000e+000
      endloop
   endfacet
   facet normal -3.960194e-001 9.182422e-001 0.000000e+000
      outer loop
         vertex -2.326794e+000 1.405307e+000 1.008000e+000
         vertex -2.441250e+000 1.351935e+000 1.890000e+000
         vertex -2.326794e+000 1.405307e+000 1.890000e+000
      endloop
   endfacet
   facet normal -2.868663e-001 9.579706e-001 0.000000e+000
      outer loop
         vertex -2.326794e+000 1.405307e+000 1.008000e+000
         vertex -2.326794e+000 1.405307e+000 1.890000e+000
         vertex -2.204808e+000 1.437993e+000 1.008000e+000
      endloop
   endfacet
   facet normal -2.305519e-001 9.730600e-001 0.000000e+000
      outer loop
         vertex -2.204808e+000 1.437993e+000 1.008000e+000
         vertex -2.326794e+000 1.405307e+000 1.890000e+000
         vertex -2.204808e+000 1.437993e+000 1.890000e+000
      endloop
   endfacet
   facet normal -1.161583e-001 9.932307e-001 0.000000e+000
      outer loop
         vertex -2.204808e+000 1.437993e+000 1.008000e+000
         vertex -2.204808e+000 1.437993e+000 1.890000e+000
         vertex -2.079000e+000 1.449000e+000 1.008000e+000
      endloop
   endfacet
   facet normal -5.807914e-002 9.983120e-001 0.000000e+000
      outer loop
         vertex -2.079000e+000 1.449000e+000 1.008000e+000
         vertex -2.204808e+000 1.437993e+000 1.890000e+000
         vertex -2.079000e+000 1.449000e+000 1.890000e+000
      endloop
   endfacet
   facet normal 5.807914e-002 9.983120e-001 0.000000e+000
      outer loop
         vertex 2.016000e+000 1.449000e+000 1.008000e+000
         vertex 2.016000e+000 1.449000e+000 1.890000e+000
         vertex 2.141808e+000 1.437993e+000 1.008000e+000
      endloop
   endfacet
   facet normal 1.161583e-001 9.932307e-001 0.000000e+000
      outer loop
         vertex 2.141808e+000 1.437993e+000 1.008000e+000
         vertex 2.016000e+000 1.449000e+000 1.890000e+000
         vertex 2.141808e+000 1.437993e+000 1.890000e+000
      endloop
   endfacet
   facet normal 2.305519e-001 9.730600e-001 0.000000e+000
      outer loop
         vertex 2.141808e+000 1.437993e+000 1.008000e+000
         vertex 2.141808e+000 1.437993e+000 1.890000e+000
         vertex 2.263794e+000 1.405307e+000 1.008000e+000
      endloop
   endfacet
   facet normal 2.868663e-001 9.579706e-001 0.000000e+000
      outer loop
         vertex 2.263794e+000 1.405307e+000 1.008000e+000
         vertex 2.141808e+000 1.437993e+000 1.890000e+000
         vertex 2.263794e+000 1.405307e+000 1.890000e+000
      endloop
   endfacet
   facet normal 3.960194e-001 9.182422e-001 0.000000e+000
      outer loop
         vertex 2.263794e+000 1.405307e+000 1.008000e+000
         vertex 2.263794e+000 1.405307e+000 1.890000e+000
         vertex 2.378250e+000 1.351935e+000 1.008000e+000
      endloop
   endfacet
   facet normal 4.488580e-001 8.936031e-001 0.000000e+000
      outer loop
         vertex 2.378250e+000 1.351935e+000 1.008000e+000
         vertex 2.263794e+000 1.405307e+000 1.890000e+000
         vertex 2.378250e+000 1.351935e+000 1.890000e+000
      endloop
   endfacet
   facet normal 5.494540e-001 8.355240e-001 0.000000e+000
      outer loop
         vertex 2.378250e+000 1.351935e+000 1.008000e+000
         vertex 2.378250e+000 1.351935e+000 1.890000e+000
         vertex 2.481700e+000 1.279499e+000 1.008000e+000
      endloop
   endfacet
   facet normal 5.972114e-001 8.020838e-001 0.000000e+000
      outer loop
         vertex 2.481700e+000 1.279499e+000 1.008000e+000
         vertex 2.378250e+000 1.351935e+000 1.890000e+000
         vertex 2.481700e+000 1.279499e+000 1.890000e+000
      endloop
   endfacet
   facet normal 6.861938e-001 7.274188e-001 0.000000e+000
      outer loop
         vertex 2.481700e+000 1.279499e+000 1.008000e+000
         vertex 2.481700e+000 1.279499e+000 1.890000e+000
         vertex 2.570999e+000 1.190200e+000 1.008000e+000
      endloop
   endfacet
   facet normal 7.274188e-001 6.861938e-001 0.000000e+000
      outer loop
         vertex 2.570999e+000 1.190200e+000 1.008000e+000
         vertex 2.481700e+000 1.279499e+000 1.890000e+000
         vertex 2.570999e+000 1.190200e+000 1.890000e+000
      endloop
   endfacet
   facet normal 8.020838e-001 5.972114e-001 0.000000e+000
      outer loop
         vertex 2.570999e+000 1.190200e+000 1.008000e+000
         vertex 2.570999e+000 1.190200e+000 1.890000e+000
         vertex 2.643435e+000 1.086750e+000 1.008000e+000
      endloop
   endfacet
   facet normal 8.355240e-001 5.494540e-001 0.000000e+000
      outer loop
         vertex 2.643435e+000 1.086750e+000 1.008000e+000
         vertex 2.570999e+000 1.190200e+000 1.890000e+000
         vertex 2.643435e+000 1.086750e+000 1.890000e+000
      endloop
   endfacet
   facet normal 8.936031e-001 4.488580e-001 0.000000e+000
      outer loop
         vertex 2.643435e+000 1.086750e+000 1.008000e+000
         vertex 2.643435e+000 1.086750e+000 1.890000e+000
         vertex 2.696807e+000 9.722936e-001 1.008000e+000
      endloop
   endfacet
   facet normal 9.182422e-001 3.960194e-001 0.000000e+000
      outer loop
         vertex 2.696807e+000 9.722936e-001 1.008000e+000
         vertex 2.643435e+000 1.086750e+000 1.890000e+000
         vertex 2.696807e+000 9.722936e-001 1.890000e+000
      endloop
   endfacet
   facet normal 9.579706e-001 2.868663e-001 0.000000e+000
      outer loop
         vertex 2.696807e+000 9.722936e-001 1.008000e+000
         vertex 2.696807e+000 9.722936e-001 1.890000e+000
         vertex 2.729493e+000 8.503081e-001 1.008000e+000
      endloop
   endfacet
   facet normal 9.730600e-001 2.305519e-001 0.000000e+000
      outer loop
         vertex 2.729493e+000 8.503081e-001 1.008000e+000
         vertex 2.696807e+000 9.722936e-001 1.890000e+000
         vertex 2.729493e+000 8.503081e-001 1.890000e+000
      endloop
   endfacet
   facet normal 9.932307e-001 1.161583e-001 0.000000e+000
      outer loop
         vertex 2.729493e+000 8.503081e-001 1.008000e+000
         vertex 2.729493e+000 8.503081e-001 1.890000e+000
         vertex 2.740500e+000 7.245000e-001 1.008000e+000
      endloop
   endfacet
   facet normal 9.983120e-001 5.807914e-002 0.000000e+000
      outer loop
         vertex 2.740500e+000 7.245000e-001 1.008000e+000
         vertex 2.729493e+000 8.503081e-001 1.890000e+000
         vertex 2.740500e+000 7.245000e-001 1.890000e+000
      endloop
   endfacet
   facet normal 9.983120e-001 -5.807914e-002 0.000000e+000
      outer loop
         vertex 2.740500e+000 7.245000e-001 1.008000e+000
         vertex 2.740500e+000 7.245000e-001 1.890000e+000
         vertex 2.729493e+000 5.986919e-001 1.008000e+000
      endloop
   endfacet
   facet normal 9.932307e-001 -1.161583e-001 0.000000e+000
      outer loop
         vertex 2.729493e+000 5.986919e-001 1.008000e+000
         vertex 2.740500e+000 7.245000e-001 1.890000e+000
         vertex 2.729493e+000 5.986919e-001 1.890000e+000
      endloop
   endfacet
   facet normal 9.730600e-001 -2.305519e-001 0.000000e+000
      outer loop
         vertex 2.729493e+000 5.986919e-001 1.008000e+000
         vertex 2.729493e+000 5.986919e-001 1.890000e+000
         vertex 2.696807e+000 4.767064e-001 1.008000e+000
      endloop
   endfacet
   facet normal 9.579706e-001 -2.868663e-001 0.000000e+000
      outer loop
         vertex 2.696807e+000 4.767064e-001 1.008000e+000
         vertex 2.729493e+000 5.986919e-001 1.890000e+000
         vertex 2.696807e+000 4.767064e-001 1.890000e+000
      endloop
   endfacet
   facet normal 9.182422e-001 -3.960194e-001 0.000000e+000
      outer loop
         vertex 2.696807e+000 4.767064e-001 1.008000e+000
         vertex 2.696807e+000 4.767064e-001 1.890000e+000
         vertex 2.643435e+000 3.622500e-001 1.008000e+000
      endloop
   endfacet
   facet normal 8.936031e-001 -4.488580e-001 0.000000e+000
      outer loop
         vertex 2.643435e+000 3.622500e-001 1.008000e+000
         vertex 2.696807e+000 4.767064e-001 1.890000e+000
         vertex 2.643435e+000 3.622500e-001 1.890000e+000
      endloop
   endfacet
   facet normal 8.355240e-001 -5.494540e-001 0.000000e+000
      outer loop
         vertex 2.643435e+000 3.622500e-001 1.008000e+000
         vertex 2.643435e+000 3.622500e-001 1.890000e+000
         vertex 2.570999e+000 2.588004e-001 1.008000e+000
      endloop
   endfacet
   facet normal 8.020838e-001 -5.972114e-001 0.000000e+000
      outer loop
         vertex 2.570999e+000 2.588004e-001 1.008000e+000
         vertex 2.643435e+000 3.622500e-001 1.890000e+000
         vertex 2.570999e+000 2.588004e-001 1.890000e+000
      endloop
   endfacet
   facet normal 7.274188e-001 -6.861938e-001 0.000000e+000
      outer loop
         vertex 2.570999e+000 2.588004e-001 1.008000e+000
         vertex 2.570999e+000 2.588004e-001 1.890000e+000
         vertex 2.481700e+000 1.695008e-001 1.008000e+000
      endloop
   endfacet
   facet normal 6.861938e-001 -7.274188e-001 0.000000e+000
      outer loop
         vertex 2.481700e+000 1.695008e-001 1.008000e+000
         vertex 2.570999e+000 2.588004e-001 1.890000e+000
         vertex 2.481700e+000 1.695008e-001 1.890000e+000
      endloop
   endfacet
   facet normal 5.972114e-001 -8.020838e-001 0.000000e+000
      outer loop
         vertex 2.481700e+000 1.695008e-001 1.008000e+000
         vertex 2.481700e+000 1.695008e-001 1.890000e+000
         vertex 2.378250e+000 9.706461e-002 1.008000e+000
      endloop
   endfacet
   facet normal 5.494540e-001 -8.355240e-001 0.000000e+000
      outer loop
         vertex 2.378250e+000 9.706461e-002 1.008000e+000
         vertex 2.481700e+000 1.695008e-001 1.890000e+000
         vertex 2.378250e+000 9.706461e-002 1.890000e+000
      endloop
   endfacet
   facet normal 4.488580e-001 -8.936031e-001 0.000000e+000
      outer loop
         vertex 2.378250e+000 9.706461e-002 1.008000e+000
         vertex 2.378250e+000 9.706461e-002 1.890000e+000
         vertex 2.263794e+000 4.369271e-002 1.008000e+000
      endloop
   endfacet
   facet normal 3.960194e-001 -9.182422e-001 0.000000e+000
      outer loop
         vertex 2.263794e+000 4.369271e-002 1.008000e+000
         vertex 2.378250e+000 9.706461e-002 1.890000e+000
         vertex 2.263794e+000 4.369271e-002 1.890000e+000
      endloop
   endfacet
   facet normal 2.868663e-001 -9.579706e-001 0.000000e+000
      outer loop
         vertex 2.263794e+000 4.369271e-002 1.008000e+000
         vertex 2.263794e+000 4.369271e-002 1.890000e+000
         vertex 2.141808e+000 1.100683e-002 1.008000e+000
      endloop
   endfacet
   facet normal 2.305519e-001 -9.730600e-001 0.000000e+000
      outer loop
         vertex 2.141808e+000 1.100683e-002 1.008000e+000
         vertex 2.263794e+000 4.369271e-002 1.890000e+000
         vertex 2.141808e+000 1.100683e-002 1.890000e+000
      endloop
   endfacet
   facet normal 1.161583e-001 -9.932307e-001 0.000000e+000
      outer loop
         vertex 2.141808e+000 1.100683e-002 1.008000e+000
         vertex 2.141808e+000 1.100683e-002 1.890000e+000
         vertex 2.016000e+000 -9.536745e-010 1.008000e+000
      endloop
   endfacet
   facet normal 5.807914e-002 -9.983120e-001 0.000000e+000
      outer loop
         vertex 2.016000e+000 -9.536745e-010 1.008000e+000
         vertex 2.141808e+000 1.100683e-002 1.890000e+000
         vertex 2.016000e+000 -9.536745e-010 1.890000e+000
      endloop
   endfacet
   facet normal -5.807914e-002 -9.983120e-001 0.000000e+000
      outer loop
         vertex -2.079000e+000 -9.536745e-010 -1.890000e+000
         vertex -2.079000e+000 -9.536745e-010 -1.008000e+000
         vertex -2.204808e+000 1.100683e-002 -1.890000e+000
      endloop
   endfacet
   facet normal -1.161583e-001 -9.932307e-001 0.000000e+000
      outer loop
         vertex -2.204808e+000 1.100683e-002 -1.890000e+000
         vertex -2.079000e+000 -9.536745e-010 -1.008000e+000
         vertex -2.204808e+000 1.100683e-002 -1.008000e+000
      endloop
   endfacet
   facet normal -2.305519e-001 -9.730600e-001 0.000000e+000
      outer loop
         vertex -2.204808e+000 1.100683e-002 -1.890000e+000
         vertex -2.204808e+000 1.100683e-002 -1.008000e+000
         vertex -2.326794e+000 4.369271e-002 -1.890000e+000
      endloop
   endfacet
   facet normal -2.868663e-001 -9.579706e-001 0.000000e+000
      outer loop
         vertex -2.326794e+000 4.369271e-002 -1.890000e+000
         vertex -2.204808e+000 1.100683e-002 -1.008000e+000
         vertex -2.326794e+000 4.369271e-002 -1.008000e+000
      endloop
   endfacet
   facet normal -3.960194e-001 -9.182422e-001 0.000000e+000
      outer loop
         vertex -2.326794e+000 4.369271e-002 -1.890000e+000
         vertex -2.326794e+000 4.369271e-002 -1.008000e+000
         vertex -2.441250e+000 9.706461e-002 -1.890000e+000
      endloop
   endfacet
   facet normal -4.488580e-001 -8.936031e-001 0.000000e+000
      outer loop
         vertex -2.441250e+000 9.706461e-002 -1.890000e+000
         vertex -2.326794e+000 4.369271e-002 -1.008000e+000
         vertex -2.441250e+000 9.706461e-002 -1.008000e+000
      endloop
   endfacet
   facet normal -5.494540e-001 -8.355240e-001 0.000000e+000
      outer loop
         vertex -2.441250e+000 9.706461e-002 -1.890000e+000
         vertex -2.441250e+000 9.706461e-002 -1.008000e+000
         vertex -2.544700e+000 1.695008e-001 -1.890000e+000
      endloop
   endfacet
   facet normal -5.972114e-001 -8.020838e-001 0.000000e+000
      outer loop
         vertex -2.544700e+000 1.695008e-001 -1.890000e+000
         vertex -2.441250e+000 9.706461e-002 -1.008000e+000
         vertex -2.544700e+000 1.695008e-001 -1.008000e+000
      endloop
   endfacet
   facet normal -6.861938e-001 -7.274188e-001 0.000000e+000
      outer loop
         vertex -2.544700e+000 1.695008e-001 -1.890000e+000
         vertex -2.544700e+000 1.695008e-001 -1.008000e+000
         vertex -2.633999e+000 2.588004e-001 -1.890000e+000
      endloop
   endfacet
   facet normal -7.274188e-001 -6.861938e-001 0.000000e+000
      outer loop
         vertex -2.633999e+000 2.588004e-001 -1.890000e+000
         vertex -2.544700e+000 1.695008e-001 -1.008000e+000
         vertex -2.633999e+000 2.588004e-001 -1.008000e+000
      endloop
   endfacet
   facet normal -8.020838e-001 -5.972114e-001 0.000000e+000
      outer loop
         vertex -2.633999e+000 2.588004e-001 -1.890000e+000
         vertex -2.633999e+000 2.588004e-001 -1.008000e+000
         vertex -2.706435e+000 3.622500e-001 -1.890000e+000
      endloop
   endfacet
   facet normal -8.355240e-001 -5.494540e-001 0.000000e+000
      outer loop
         vertex -2.706435e+000 3.622500e-001 -1.890000e+000
         vertex -2.633999e+000 2.588004e-001 -1.008000e+000
         vertex -2.706435e+000 3.622500e-001 -1.008000e+000
      endloop
   endfacet
   facet normal -8.936031e-001 -4.488580e-001 0.000000e+000
      outer loop
         vertex -2.706435e+000 3.622500e-001 -1.890000e+000
         vertex -2.706435e+000 3.622500e-001 -1.008000e+000
         vertex -2.759807e+000 4.767064e-001 -1.890000e+000
      endloop
   endfacet
   facet normal -9.182422e-001 -3.960194e-001 0.000000e+000
      outer loop
         vertex -2.759807e+000 4.767064e-001 -1.890000e+000
         vertex -2.706435e+000 3.622500e-001 -1.008000e+000
         vertex -2.759807e+000 4.767064e-001 -1.008000e+000
      endloop
   endfacet
   facet normal -9.579706e-001 -2.868663e-001 0.000000e+000
      outer loop
         vertex -2.759807e+000 4.767064e-001 -1.890000e+000
         vertex -2.759807e+000 4.767064e-001 -1.008000e+000
         vertex -2.792493e+000 5.986919e-001 -1.890000e+000
      endloop
   endfacet
   facet normal -9.730600e-001 -2.305519e-001 0.000000e+000
      outer loop
         vertex -2.792493e+000 5.986919e-001 -1.890000e+000
         vertex -2.759807e+000 4.767064e-001 -1.008000e+000
         vertex -2.792493e+000 5.986919e-001 -1.008000e+000
      endloop
   endfacet
   facet normal -9.932307e-001 -1.161583e-001 0.000000e+000
      outer loop
         vertex -2.792493e+000 5.986919e-001 -1.890000e+000
         vertex -2.792493e+000 5.986919e-001 -1.008000e+000
         vertex -2.803500e+000 7.245000e-001 -1.890000e+000
      endloop
   endfacet
   facet normal -9.983120e-001 -5.807914e-002 0.000000e+000
      outer loop
         vertex -2.803500e+000 7.245000e-001 -1.890000e+000
         vertex -2.792493e+000 5.986919e-001 -1.008000e+000
         vertex -2.803500e+000 7.245000e-001 -1.008000e+000
      endloop
   endfacet
   facet normal -9.983120e-001 5.807914e-002 0.000000e+000
      outer loop
         vertex -2.803500e+000 7.245000e-001 -1.890000e+000
         vertex -2.803500e+000 7.245000e-001 -1.008000e+000
         vertex -2.792493e+000 8.503081e-001 -1.890000e+000
      endloop
   endfacet
   facet normal -9.932307e-001 1.161583e-001 0.000000e+000
      outer loop
         vertex -2.792493e+000 8.503081e-001 -1.890000e+000
         vertex -2.803500e+000 7.245000e-001 -1.008000e+000
         vertex -2.792493e+000 8.503081e-001 -1.008000e+000
      endloop
   endfacet
   facet normal -9.730600e-001 2.305519e-001 0.000000e+000
      outer loop
         vertex -2.792493e+000 8.503081e-001 -1.890000e+000
         vertex -2.792493e+000 8.503081e-001 -1.008000e+000
         vertex -2.759807e+000 9.722936e-001 -1.890000e+000
      endloop
   endfacet
   facet normal -9.579706e-001 2.868663e-001 0.000000e+000
      outer loop
         vertex -2.759807e+000 9.722936e-001 -1.890000e+000
         vertex -2.792493e+000 8.503081e-001 -1.008000e+000
         vertex -2.759807e+000 9.722936e-001 -1.008000e+000
      endloop
   endfacet
   facet normal -9.182422e-001 3.960194e-001 0.000000e+000
      outer loop
         vertex -2.759807e+000 9.722936e-001 -1.890000e+000
         vertex -2.759807e+000 9.722936e-001 -1.008000e+000
         vertex -2.706435e+000 1.086750e+000 -1.890000e+000
      endloop
   endfacet
   facet normal -8.936031e-001 4.488580e-001 0.000000e+000
      outer loop
         vertex -2.706435e+000 1.086750e+000 -1.890000e+000
         vertex -2.759807e+000 9.722936e-001 -1.008000e+000
         vertex -2.706435e+000 1.086750e+000 -1.008000e+000
      endloop
   endfacet
   facet normal -8.355240e-001 5.494540e-001 0.000000e+000
      outer loop
         vertex -2.706435e+000 1.086750e+000 -1.890000e+000
         vertex -2.706435e+000 1.086750e+000 -1.008000e+000
         vertex -2.633999e+000 1.190200e+000 -1.890000e+000
      endloop
   endfacet
   facet normal -8.020838e-001 5.972114e-001 0.000000e+000
      outer loop
         vertex -2.633999e+000 1.190200e+000 -1.890000e+000
         vertex -2.706435e+000 1.086750e+000 -1.008000e+000
         vertex -2.633999e+000 1.190200e+000 -1.008000e+000
      endloop
   endfacet
   facet normal -7.274188e-001 6.861938e-001 0.000000e+000
      outer loop
         vertex -2.633999e+000 1.190200e+000 -1.890000e+000
         vertex -2.633999e+000 1.190200e+000 -1.008000e+000
         vertex -2.544700e+000 1.279499e+000 -1.890000e+000
      endloop
   endfacet
   facet normal -6.861938e-001 7.274188e-001 0.000000e+000
      outer loop
         vertex -2.544700e+000 1.279499e+000 -1.890000e+000
         vertex -2.633999e+000 1.190200e+000 -1.008000e+000
         vertex -2.544700e+000 1.279499e+000 -1.008000e+000
      endloop
   endfacet
   facet normal -5.972114e-001 8.020838e-001 0.000000e+000
      outer loop
         vertex -2.544700e+000 1.279499e+000 -1.890000e+000
         vertex -2.544700e+000 1.279499e+000 -1.008000e+000
         vertex -2.441250e+000 1.351935e+000 -1.890000e+000
      endloop
   endfacet
   facet normal -5.494540e-001 8.355240e-001 0.000000e+000
      outer loop
         vertex -2.441250e+000 1.351935e+000 -1.890000e+000
         vertex -2.544700e+000 1.279499e+000 -1.008000e+000
         vertex -2.441250e+000 1.351935e+000 -1.008000e+000
      endloop
   endfacet
   facet normal -4.488580e-001 8.936031e-001 0.000000e+000
      outer loop
         vertex -2.441250e+000 1.351935e+000 -1.890000e+000
         vertex -2.441250e+000 1.351935e+000 -1.008000e+000
         vertex -2.326794e+000 1.405307e+000 -1.890000e+000
      endloop
   endfacet
   facet normal -3.960194e-001 9.182422e-001 0.000000e+000
      outer loop
         vertex -2.326794e+000 1.405307e+000 -1.890000e+000
         vertex -2.441250e+000 1.351935e+000 -1.008000e+000
         vertex -2.326794e+000 1.405307e+000 -1.008000e+000
      endloop
   endfacet
   facet normal -2.868663e-001 9.579706e-001 0.000000e+000
      outer loop
         vertex -2.326794e+000 1.405307e+000 -1.890000e+000
         vertex -2.326794e+000 1.405307e+000 -1.008000e+000
         vertex -2.204808e+000 1.437993e+000 -1.890000e+000
      endloop
   endfacet
   facet normal -2.305519e-001 9.730600e-001 0.000000e+000
      outer loop
         vertex -2.204808e+000 1.437993e+000 -1.890000e+000
         vertex -2.326794e+000 1.405307e+000 -1.008000e+000
         vertex -2.204808e+000 1.437993e+000 -1.008000e+000
      endloop
   endfacet
   facet normal -1.161583e-001 9.932307e-001 0.000000e+000
      outer loop
         vertex -2.204808e+000 1.437993e+000 -1.890000e+000
         vertex -2.204808e+000 1.437993e+000 -1.008000e+000
         vertex -2.079000e+000 1.449000e+000 -1.890000e+000
      endloop
   endfacet
   facet normal -5.807914e-002 9.983120e-001 0.000000e+000
      outer loop
         vertex -2.079000e+000 1.449000e+000 -1.890000e+000
         vertex -2.204808e+000 1.437993e+000 -1.008000e+000
         vertex -2.079000e+000 1.449000e+000 -1.008000e+000
      endloop
   endfacet
   facet normal 5.422335e-017 -1.000000e+000 0.000000e+000
      outer loop
         vertex -2.079000e+000 -9.536745e-010 1.890000e+000
         vertex -2.079000e+000 -9.536745e-010 1.008000e+000
         vertex 2.016000e+000 -9.536745e-010 1.890000e+000
      endloop
   endfacet
   facet normal 5.422335e-017 -1.000000e+000 0.000000e+000
      outer loop
         vertex 2.016000e+000 -9.536745e-010 1.890000e+000
         vertex -2.079000e+000 -9.536745e-010 1.008000e+000
         vertex -1.182000e+000 -9.536745e-010 1.008000e+000
      endloop
   endfacet
   facet normal 5.422335e-017 -1.000000e+000 0.000000e+000
      outer loop
         vertex 2.016000e+000 -9.536745e-010 1.890000e+000
         vertex -1.182000e+000 -9.536745e-010 1.008000e+000
         vertex 8.820000e-001 -9.536745e-010 7.080000e-001
      endloop
   endfacet
   facet normal 5.422335e-017 -1.000000e+000 0.000000e+000
      outer loop
         vertex 8.820000e-001 -9.536745e-010 7.080000e-001
         vertex -1.182000e+000 -9.536745e-010 1.008000e+000
         vertex -8.820000e-001 -9.536745e-010 7.080000e-001
      endloop
   endfacet
   facet normal 5.422335e-017 -1.000000e+000 0.000000e+000
      outer loop
         vertex 8.820000e-001 -9.536745e-010 7.080000e-001
         vertex -8.820000e-001 -9.536745e-010 7.080000e-001
         vertex 8.820000e-001 -9.536745e-010 -7.080000e-001
      endloop
   endfacet
   facet normal 5.422335e-017 -1.000000e+000 0.000000e+000
      outer loop
         vertex 8.820000e-001 -9.536745e-010 -7.080000e-001
         vertex -8.820000e-001 -9.536745e-010 7.080000e-001
         vertex -8.820000e-001 -9.536745e-010 -7.080000e-001
      endloop
   endfacet
   facet normal 5.422335e-017 -1.000000e+000 0.000000e+000
      outer loop
         vertex 8.820000e-001 -9.536745e-010 -7.080000e-001
         vertex -8.820000e-001 -9.536745e-010 -7.080000e-001
         vertex 1.182000e+000 -9.536745e-010 -1.008000e+000
      endloop
   endfacet
   facet normal 5.422335e-017 -1.000000e+000 0.000000e+000
      outer loop
         vertex 1.182000e+000 -9.536745e-010 -1.008000e+000
         vertex -8.820000e-001 -9.536745e-010 -7.080000e-001
         vertex 2.016000e+000 -9.536745e-010 -1.890000e+000
      endloop
   endfacet
   facet normal 5.422335e-017 -1.000000e+000 0.000000e+000
      outer loop
         vertex 1.182000e+000 -9.536745e-010 -1.008000e+000
         vertex 2.016000e+000 -9.536745e-010 -1.890000e+000
         vertex 2.016000e+000 -9.536745e-010 -1.008000e+000
      endloop
   endfacet
   facet normal 5.422335e-017 -1.000000e+000 0.000000e+000
      outer loop
         vertex 1.182000e+000 -9.536745e-010 1.008000e+000
         vertex 2.016000e+000 -9.536745e-010 1.890000e+000
         vertex 8.820000e-001 -9.536745e-010 7.080000e-001
      endloop
   endfacet
   facet normal 5.422335e-017 -1.000000e+000 0.000000e+000
      outer loop
         vertex -2.079000e+000 -9.536745e-010 -1.008000e+000
         vertex -2.079000e+000 -9.536745e-010 -1.890000e+000
         vertex -1.182000e+000 -9.536745e-010 -1.008000e+000
      endloop
   endfacet
   facet normal 5.422335e-017 -1.000000e+000 0.000000e+000
      outer loop
         vertex -1.182000e+000 -9.536745e-010 -1.008000e+000
         vertex -2.079000e+000 -9.536745e-010 -1.890000e+000
         vertex 2.016000e+000 -9.536745e-010 -1.890000e+000
      endloop
   endfacet
   facet normal 5.422335e-017 -1.000000e+000 0.000000e+000
      outer loop
         vertex -1.182000e+000 -9.536745e-010 -1.008000e+000
         vertex 2.016000e+000 -9.536745e-010 -1.890000e+000
         vertex -8.820000e-001 -9.536745e-010 -7.080000e-001
      endloop
   endfacet
   facet normal 5.422335e-017 -1.000000e+000 0.000000e+000
      outer loop
         vertex 1.182000e+000 -9.536745e-010 1.008000e+000
         vertex 2.016000e+000 -9.536745e-010 1.008000e+000
         vertex 2.016000e+000 -9.536745e-010 1.890000e+000
      endloop
   endfacet
   facet normal 5.807914e-002 9.983120e-001 0.000000e+000
      outer loop
         vertex 2.016000e+000 1.449000e+000 -1.890000e+000
         vertex 2.016000e+000 1.449000e+000 -1.008000e+000
         vertex 2.141808e+000 1.437993e+000 -1.890000e+000
      endloop
   endfacet
   facet normal 1.161583e-001 9.932307e-001 0.000000e+000
      outer loop
         vertex 2.141808e+000 1.437993e+000 -1.890000e+000
         vertex 2.016000e+000 1.449000e+000 -1.008000e+000
         vertex 2.141808e+000 1.437993e+000 -1.008000e+000
      endloop
   endfacet
   facet normal 2.305519e-001 9.730600e-001 0.000000e+000
      outer loop
         vertex 2.141808e+000 1.437993e+000 -1.890000e+000
         vertex 2.141808e+000 1.437993e+000 -1.008000e+000
         vertex 2.263794e+000 1.405307e+000 -1.890000e+000
      endloop
   endfacet
   facet normal 2.868663e-001 9.579706e-001 0.000000e+000
      outer loop
         vertex 2.263794e+000 1.405307e+000 -1.890000e+000
         vertex 2.141808e+000 1.437993e+000 -1.008000e+000
         vertex 2.263794e+000 1.405307e+000 -1.008000e+000
      endloop
   endfacet
   facet normal 3.960194e-001 9.182422e-001 0.000000e+000
      outer loop
         vertex 2.263794e+000 1.405307e+000 -1.890000e+000
         vertex 2.263794e+000 1.405307e+000 -1.008000e+000
         vertex 2.378250e+000 1.351935e+000 -1.890000e+000
      endloop
   endfacet
   facet normal 4.488580e-001 8.936031e-001 0.000000e+000
      outer loop
         vertex 2.378250e+000 1.351935e+000 -1.890000e+000
         vertex 2.263794e+000 1.405307e+000 -1.008000e+000
         vertex 2.378250e+000 1.351935e+000 -1.008000e+000
      endloop
   endfacet
   facet normal 5.494540e-001 8.355240e-001 0.000000e+000
      outer loop
         vertex 2.378250e+000 1.351935e+000 -1.890000e+000
         vertex 2.378250e+000 1.351935e+000 -1.008000e+000
         vertex 2.481700e+000 1.279499e+000 -1.890000e+000
      endloop
   endfacet
   facet normal 5.972114e-001 8.020838e-001 0.000000e+000
      outer loop
         vertex 2.481700e+000 1.279499e+000 -1.890000e+000
         vertex 2.378250e+000 1.351935e+000 -1.008000e+000
         vertex 2.481700e+000 1.279499e+000 -1.008000e+000
      endloop
   endfacet
   facet normal 6.861938e-001 7.274188e-001 0.000000e+000
      outer loop
         vertex 2.481700e+000 1.279499e+000 -1.890000e+000
         vertex 2.481700e+000 1.279499e+000 -1.008000e+000
         vertex 2.570999e+000 1.190200e+000 -1.890000e+000
      endloop
   endfacet
   facet normal 7.274188e-001 6.861938e-001 0.000000e+000
      outer loop
         vertex 2.570999e+000 1.190200e+000 -1.890000e+000
         vertex 2.481700e+000 1.279499e+000 -1.008000e+000
         vertex 2.570999e+000 1.190200e+000 -1.008000e+000
      endloop
   endfacet
   facet normal 8.020838e-001 5.972114e-001 0.000000e+000
      outer loop
         vertex 2.570999e+000 1.190200e+000 -1.890000e+000
         vertex 2.570999e+000 1.190200e+000 -1.008000e+000
         vertex 2.643435e+000 1.086750e+000 -1.890000e+000
      endloop
   endfacet
   facet normal 8.355240e-001 5.494540e-001 0.000000e+000
      outer loop
         vertex 2.643435e+000 1.086750e+000 -1.890000e+000
         vertex 2.570999e+000 1.190200e+000 -1.008000e+000
         vertex 2.643435e+000 1.086750e+000 -1.008000e+000
      endloop
   endfacet
   facet normal 8.936031e-001 4.488580e-001 0.000000e+000
      outer loop
         vertex 2.643435e+000 1.086750e+000 -1.890000e+000
         vertex 2.643435e+000 1.086750e+000 -1.008000e+000
         vertex 2.696807e+000 9.722936e-001 -1.890000e+000
      endloop
   endfacet
   facet normal 9.182422e-001 3.960194e-001 0.000000e+000
      outer loop
         vertex 2.696807e+000 9.722936e-001 -1.890000e+000
         vertex 2.643435e+000 1.086750e+000 -1.008000e+000
         vertex 2.696807e+000 9.722936e-001 -1.008000e+000
      endloop
   endfacet
   facet normal 9.579706e-001 2.868663e-001 0.000000e+000
      outer loop
         vertex 2.696807e+000 9.722936e-001 -1.890000e+000
         vertex 2.696807e+000 9.722936e-001 -1.008000e+000
         vertex 2.729493e+000 8.503081e-001 -1.890000e+000
      endloop
   endfacet
   facet normal 9.730600e-001 2.305519e-001 0.000000e+000
      outer loop
         vertex 2.729493e+000 8.503081e-001 -1.890000e+000
         vertex 2.696807e+000 9.722936e-001 -1.008000e+000
         vertex 2.729493e+000 8.503081e-001 -1.008000e+000
      endloop
   endfacet
   facet normal 9.932307e-001 1.161583e-001 0.000000e+000
      outer loop
         vertex 2.729493e+000 8.503081e-001 -1.890000e+000
         vertex 2.729493e+000 8.503081e-001 -1.008000e+000
         vertex 2.740500e+000 7.245000e-001 -1.890000e+000
      endloop
   endfacet
   facet normal 9.983120e-001 5.807914e-002 0.000000e+000
      outer loop
         vertex 2.740500e+000 7.245000e-001 -1.890000e+000
         vertex 2.729493e+000 8.503081e-001 -1.008000e+000
         vertex 2.740500e+000 7.245000e-001 -1.008000e+000
      endloop
   endfacet
   facet normal 9.983120e-001 -5.807914e-002 0.000000e+000
      outer loop
         vertex 2.740500e+000 7.245000e-001 -1.890000e+000
         vertex 2.740500e+000 7.245000e-001 -1.008000e+000
         vertex 2.729493e+000 5.986919e-001 -1.890000e+000
      endloop
   endfacet
   facet normal 9.932307e-001 -1.161583e-001 0.000000e+000
      outer loop
         vertex 2.729493e+000 5.986919e-001 -1.890000e+000
         vertex 2.740500e+000 7.245000e-001 -1.008000e+000
         vertex 2.729493e+000 5.986919e-001 -1.008000e+000
      endloop
   endfacet
   facet normal 9.730600e-001 -2.305519e-001 0.000000e+000
      outer loop
         vertex 2.729493e+000 5.986919e-001 -1.890000e+000
         vertex 2.729493e+000 5.986919e-001 -1.008000e+000
         vertex 2.696807e+000 4.767064e-001 -1.890000e+000
      endloop
   endfacet
   facet normal 9.579706e-001 -2.868663e-001 0.000000e+000
      outer loop
         vertex 2.696807e+000 4.767064e-001 -1.890000e+000
         vertex 2.729493e+000 5.986919e-001 -1.008000e+000
         vertex 2.696807e+000 4.767064e-001 -1.008000e+000
      endloop
   endfacet
   facet normal 9.182422e-001 -3.960194e-001 0.000000e+000
      outer loop
         vertex 2.696807e+000 4.767064e-001 -1.890000e+000
         vertex 2.696807e+000 4.767064e-001 -1.008000e+000
         vertex 2.643435e+000 3.622500e-001 -1.890000e+000
      endloop
   endfacet
   facet normal 8.936031e-001 -4.488580e-001 0.000000e+000
      outer loop
         vertex 2.643435e+000 3.622500e-001 -1.890000e+000
         vertex 2.696807e+000 4.767064e-001 -1.008000e+000
         vertex 2.643435e+000 3.622500e-001 -1.008000e+000
      endloop
   endfacet
   facet normal 8.355240e-001 -5.494540e-001 0.000000e+000
      outer loop
         vertex 2.643435e+000 3.622500e-001 -1.890000e+000
         vertex 2.643435e+000 3.622500e-001 -1.008000e+000
         vertex 2.570999e+000 2.588004e-001 -1.890000e+000
      endloop
   endfacet
   facet normal 8.020838e-001 -5.972114e-001 0.000000e+000
      outer loop
         vertex 2.570999e+000 2.588004e-001 -1.890000e+000
         vertex 2.643435e+000 3.622500e-001 -1.008000e+000
         vertex 2.570999e+000 2.588004e-001 -1.008000e+000
      endloop
   endfacet
   facet normal 7.274188e-001 -6.861938e-001 0.000000e+000
      outer loop
         vertex 2.570999e+000 2.588004e-001 -1.890000e+000
         vertex 2.570999e+000 2.588004e-001 -1.008000e+000
         vertex 2.481700e+000 1.695008e-001 -1.890000e+000
      endloop
   endfacet
   facet normal 6.861938e-001 -7.274188e-001 0.000000e+000
      outer loop
         vertex 2.481700e+000 1.695008e-001 -1.890000e+000
         vertex 2.570999e+000 2.588004e-001 -1.008000e+000
         vertex 2.481700e+000 1.695008e-001 -1.008000e+000
      endloop
   endfacet
   facet normal 5.972114e-001 -8.020838e-001 0.000000e+000
      outer loop
         vertex 2.481700e+000 1.695008e-001 -1.890000e+000
         vertex 2.481700e+000 1.695008e-001 -1.008000e+000
         vertex 2.378250e+000 9.706461e-002 -1.890000e+000
      endloop
   endfacet
   facet normal 5.494540e-001 -8.355240e-001 0.000000e+000
      outer loop
         vertex 2.378250e+000 9.706461e-002 -1.890000e+000
         vertex 2.481700e+000 1.695008e-001 -1.008000e+000
         vertex 2.378250e+000 9.706461e-002 -1.008000e+000
      endloop
   endfacet
   facet normal 4.488580e-001 -8.936031e-001 0.000000e+000
      outer loop
         vertex 2.378250e+000 9.706461e-002 -1.890000e+000
         vertex 2.378250e+000 9.706461e-002 -1.008000e+000
         vertex 2.263794e+000 4.369271e-002 -1.890000e+000
      endloop
   endfacet
   facet normal 3.960194e-001 -9.182422e-001 0.000000e+000
      outer loop
         vertex 2.263794e+000 4.369271e-002 -1.890000e+000
         vertex 2.378250e+000 9.706461e-002 -1.008000e+000
         vertex 2.263794e+000 4.369271e-002 -1.008000e+000
      endloop
   endfacet
   facet normal 2.868663e-001 -9.579706e-001 0.000000e+000
      outer loop
         vertex 2.263794e+000 4.369271e-002 -1.890000e+000
         vertex 2.263794e+000 4.369271e-002 -1.008000e+000
         vertex 2.141808e+000 1.100683e-002 -1.890000e+000
      endloop
   endfacet
   facet normal 2.305519e-001 -9.730600e-001 0.000000e+000
      outer loop
         vertex 2.141808e+000 1.100683e-002 -1.890000e+000
         vertex 2.263794e+000 4.369271e-002 -1.008000e+000
         vertex 2.141808e+000 1.100683e-002 -1.008000e+000
      endloop
   endfacet
   facet normal 1.161583e-001 -9.932307e-001 0.000000e+000
      outer loop
         vertex 2.141808e+000 1.100683e-002 -1.890000e+000
         vertex 2.141808e+000 1.100683e-002 -1.008000e+000
         vertex 2.016000e+000 -9.536745e-010 -1.890000e+000
      endloop
   endfacet
   facet normal 5.807914e-002 -9.983120e-001 0.000000e+000
      outer loop
         vertex 2.016000e+000 -9.536745e-010 -1.890000e+000
         vertex 2.141808e+000 1.100683e-002 -1.008000e+000
         vertex 2.016000e+000 -9.536745e-010 -1.008000e+000
      endloop
   endfacet
   facet normal 0.000000e+000 0.000000e+000 1.000000e+000
      outer loop
         vertex 2.016000e+000 -9.536745e-010 1.890000e+000
         vertex 2.141808e+000 1.100683e-002 1.890000e+000
         vertex -2.079000e+000 -9.536745e-010 1.890000e+000
      endloop
   endfacet
   facet normal 0.000000e+000 0.000000e+000 1.000000e+000
      outer loop
         vertex -2.079000e+000 -9.536745e-010 1.890000e+000
         vertex 2.141808e+000 1.100683e-002 1.890000e+000
         vertex 2.263794e+000 4.369271e-002 1.890000e+000
      endloop
   endfacet
   facet normal 0.000000e+000 0.000000e+000 1.000000e+000
      outer loop
         vertex -2.079000e+000 -9.536745e-010 1.890000e+000
         vertex 2.263794e+000 4.369271e-002 1.890000e+000
         vertex -2.204808e+000 1.100683e-002 1.890000e+000
      endloop
   endfacet
   facet normal 0.000000e+000 0.000000e+000 1.000000e+000
      outer loop
         vertex -2.204808e+000 1.100683e-002 1.890000e+000
         vertex 2.263794e+000 4.369271e-002 1.890000e+000
         vertex 2.378250e+000 9.706461e-002 1.890000e+000
      endloop
   endfacet
   facet normal 0.000000e+000 0.000000e+000 1.000000e+000
      outer loop
         vertex -2.204808e+000 1.100683e-002 1.890000e+000
         vertex 2.378250e+000 9.706461e-002 1.890000e+000
         vertex -2.326794e+000 4.369271e-002 1.890000e+000
      endloop
   endfacet
   facet normal 0.000000e+000 0.000000e+000 1.000000e+000
      outer loop
         vertex -2.326794e+000 4.369271e-002 1.890000e+000
         vertex 2.378250e+000 9.706461e-002 1.890000e+000
         vertex 2.481700e+000 1.695008e-001 1.890000e+000
      endloop
   endfacet
   facet normal 0.000000e+000 0.000000e+000 1.000000e+000
      outer loop
         vertex -2.326794e+000 4.369271e-002 1.890000e+000
         vertex 2.481700e+000 1.695008e-001 1.890000e+000
         vertex -2.441250e+000 9.706461e-002 1.890000e+000
      endloop
   endfacet
   facet normal 0.000000e+000 0.000000e+000 1.000000e+000
      outer loop
         vertex -2.441250e+000 9.706461e-002 1.890000e+000
         vertex 2.481700e+000 1.695008e-001 1.890000e+000
         vertex 2.570999e+000 2.588004e-001 1.890000e+000
      endloop
   endfacet
   facet normal 0.000000e+000 0.000000e+000 1.000000e+000
      outer loop
         vertex -2.441250e+000 9.706461e-002 1.890000e+000
         vertex 2.570999e+000 2.588004e-001 1.890000e+000
         vertex -2.544700e+000 1.695008e-001 1.890000e+000
      endloop
   endfacet
   facet normal 0.000000e+000 0.000000e+000 1.000000e+000
      outer loop
         vertex -2.544700e+000 1.695008e-001 1.890000e+000
         vertex 2.570999e+000 2.588004e-001 1.890000e+000
         vertex 2.643435e+000 3.622500e-001 1.890000e+000
      endloop
   endfacet
   facet normal 0.000000e+000 0.000000e+000 1.000000e+000
      outer loop
         vertex -2.544700e+000 1.695008e-001 1.890000e+000
         vertex 2.643435e+000 3.622500e-001 1.890000e+000
         vertex -2.633999e+000 2.588004e-001 1.890000e+000
      endloop
   endfacet
   facet normal 0.000000e+000 0.000000e+000 1.000000e+000
      outer loop
         vertex -2.633999e+000 2.588004e-001 1.890000e+000
         vertex 2.643435e+000 3.622500e-001 1.890000e+000
         vertex 2.696807e+000 4.767064e-001 1.890000e+000
      endloop
   endfacet
   facet normal 0.000000e+000 0.000000e+000 1.000000e+000
      outer loop
         vertex -2.633999e+000 2.588004e-001 1.890000e+000
         vertex 2.696807e+000 4.767064e-001 1.890000e+000
         vertex -2.706435e+000 3.622500e-001 1.890000e+000
      endloop
   endfacet
   facet normal 0.000000e+000 0.000000e+000 1.000000e+000
      outer loop
         vertex -2.706435e+000 3.622500e-001 1.890000e+000
         vertex 2.696807e+000 4.767064e-001 1.890000e+000
         vertex 2.729493e+000 5.986919e-001 1.890000e+000
      endloop
   endfacet
   facet normal 0.000000e+000 0.000000e+000 1.000000e+000
      outer loop
         vertex -2.706435e+000 3.622500e-001 1.890000e+000
         vertex 2.729493e+000 5.986919e-001 1.890000e+000
         vertex -2.759807e+000 4.767064e-001 1.890000e+000
      endloop
   endfacet
   facet normal 0.000000e+000 0.000000e+000 1.000000e+000
      outer loop
         vertex -2.759807e+000 4.767064e-001 1.890000e+000
         vertex 2.729493e+000 5.986919e-001 1.890000e+000
         vertex 2.740500e+000 7.245000e-001 1.890000e+000
      endloop
   endfacet
   facet normal 0.000000e+000 0.000000e+000 1.000000e+000
      outer loop
         vertex -2.759807e+000 4.767064e-001 1.890000e+000
         vertex 2.740500e+000 7.245000e-001 1.890000e+000
         vertex -2.792493e+000 5.986919e-001 1.890000e+000
      endloop
   endfacet
   facet normal 0.000000e+000 0.000000e+000 1.000000e+000
      outer loop
         vertex -2.792493e+000 5.986919e-001 1.890000e+000
         vertex 2.740500e+000 7.245000e-001 1.890000e+000
         vertex 2.729493e+000 8.503081e-001 1.890000e+000
      endloop
   endfacet
   facet normal 0.000000e+000 0.000000e+000 1.000000e+000
      outer loop
         vertex -2.792493e+000 5.986919e-001 1.890000e+000
         vertex 2.729493e+000 8.503081e-001 1.890000e+000
         vertex -2.803500e+000 7.245000e-001 1.890000e+000
      endloop
   endfacet
   facet normal 0.000000e+000 0.000000e+000 1.000000e+000
      outer loop
         vertex -2.803500e+000 7.245000e-001 1.890000e+000
         vertex 2.729493e+000 8.503081e-001 1.890000e+000
         vertex 2.696807e+000 9.722936e-001 1.890000e+000
      endloop
   endfacet
   facet normal 0.000000e+000 0.000000e+000 1.000000e+000
      outer loop
         vertex -2.803500e+000 7.245000e-001 1.890000e+000
         vertex 2.696807e+000 9.722936e-001 1.890000e+000
         vertex -2.792493e+000 8.503081e-001 1.890000e+000
      endloop
   endfacet
   facet normal 0.000000e+000 0.000000e+000 1.000000e+000
      outer loop
         vertex -2.792493e+000 8.503081e-001 1.890000e+000
         vertex 2.696807e+000 9.722936e-001 1.890000e+000
         vertex 2.643435e+000 1.086750e+000 1.890000e+000
      endloop
   endfacet
   facet normal 0.000000e+000 0.000000e+000 1.000000e+000
      outer loop
         vertex -2.792493e+000 8.503081e-001 1.890000e+000
         vertex 2.643435e+000 1.086750e+000 1.890000e+000
         vertex -2.759807e+000 9.722936e-001 1.890000e+000
      endloop
   endfacet
   facet normal 0.000000e+000 0.000000e+000 1.000000e+000
      outer loop
         vertex -2.759807e+000 9.722936e-001 1.890000e+000
         vertex 2.643435e+000 1.086750e+000 1.890000e+000
         vertex 2.570999e+000 1.190200e+000 1.890000e+000
      endloop
   endfacet
   facet normal 0.000000e+000 0.000000e+000 1.000000e+000
      outer loop
         vertex -2.759807e+000 9.722936e-001 1.890000e+000
         vertex 2.570999e+000 1.190200e+000 1.890000e+000
         vertex -2.706435e+000 1.086750e+000 1.890000e+000
      endloop
   endfacet
   facet normal 0.000000e+000 0.000000e+000 1.000000e+000
      outer loop
         vertex -2.706435e+000 1.086750e+000 1.890000e+000
         vertex 2.570999e+000 1.190200e+000 1.890000e+000
         vertex 2.481700e+000 1.279499e+000 1.890000e+000
      endloop
   endfacet
   facet normal 0.000000e+000 0.000000e+000 1.000000e+000
      outer loop
         vertex -2.706435e+000 1.086750e+000 1.890000e+000
         vertex 2.481700e+000 1.279499e+000 1.890000e+000
         vertex -2.633999e+000 1.190200e+000 1.890000e+000
      endloop
   endfacet
   facet normal 0.000000e+000 0.000000e+000 1.000000e+000
      outer loop
         vertex -2.633999e+000 1.190200e+000 1.890000e+000
         vertex 2.481700e+000 1.279499e+000 1.890000e+000
         vertex 2.378250e+000 1.351935e+000 1.890000e+000
      endloop
   endfacet
   facet normal 0.000000e+000 0.000000e+000 1.000000e+000
      outer loop
         vertex -2.633999e+000 1.190200e+000 1.890000e+000
         vertex 2.378250e+000 1.351935e+000 1.890000e+000
         vertex -2.544700e+000 1.279499e+000 1.890000e+000
      endloop
   endfacet
   facet normal 0.000000e+000 0.000000e+000 1.000000e+000
      outer loop
         vertex -2.544700e+000 1.279499e+000 1.890000e+000
         vertex 2.378250e+000 1.351935e+000 1.890000e+000
         vertex 2.263794e+000 1.405307e+000 1.890000e+000
      endloop
   endfacet
   facet normal 0.000000e+000 0.000000e+000 1.000000e+000
      outer loop
         vertex -2.544700e+000 1.279499e+000 1.890000e+000
         vertex 2.263794e+000 1.405307e+000 1.890000e+000
         vertex -2.441250e+000 1.351935e+000 1.890000e+000
      endloop
   endfacet
   facet normal 0.000000e+000 0.000000e+000 1.000000e+000
      outer loop
         vertex -2.441250e+000 1.351935e+000 1.890000e+000
         vertex 2.263794e+000 1.405307e+000 1.890000e+000
         vertex 2.141808e+000 1.437993e+000 1.890000e+000
      endloop
   endfacet
   facet normal 0.000000e+000 0.000000e+000 1.000000e+000
      outer loop
         vertex -2.441250e+000 1.351935e+000 1.890000e+000
         vertex 2.141808e+000 1.437993e+000 1.890000e+000
         vertex -2.326794e+000 1.405307e+000 1.890000e+000
      endloop
   endfacet
   facet normal 0.000000e+000 0.000000e+000 1.000000e+000
      outer loop
         vertex -2.326794e+000 1.405307e+000 1.890000e+000
         vertex 2.141808e+000 1.437993e+000 1.890000e+000
         vertex 2.016000e+000 1.449000e+000 1.890000e+000
      endloop
   endfacet
   facet normal 0.000000e+000 0.000000e+000 1.000000e+000
      outer loop
         vertex -2.326794e+000 1.405307e+000 1.890000e+000
         vertex 2.016000e+000 1.449000e+000 1.890000e+000
         vertex -2.204808e+000 1.437993e+000 1.890000e+000
      endloop
   endfacet
   facet normal 0.000000e+000 0.000000e+000 1.000000e+000
      outer loop
         vertex -2.204808e+000 1.437993e+000 1.890000e+000
         vertex 2.016000e+000 1.449000e+000 1.890000e+000
         vertex -2.079000e+000 1.449000e+000 1.890000e+000
      endloop
   endfacet
   facet normal 0.000000e+000 0.000000e+000 -1.000000e+000
      outer loop
         vertex -2.204808e+000 1.100683e-002 -1.890000e+000
         vertex -2.326794e+000 4.369271e-002 -1.890000e+000
         vertex -2.079000e+000 -9.536745e-010 -1.890000e+000
      endloop
   endfacet
   facet normal 0.000000e+000 0.000000e+000 -1.000000e+000
      outer loop
         vertex -2.079000e+000 -9.536745e-010 -1.890000e+000
         vertex -2.326794e+000 4.369271e-002 -1.890000e+000
         vertex -2.441250e+000 9.706461e-002 -1.890000e+000
      endloop
   endfacet
   facet normal 0.000000e+000 0.000000e+000 -1.000000e+000
      outer loop
         vertex -2.079000e+000 -9.536745e-010 -1.890000e+000
         vertex -2.441250e+000 9.706461e-002 -1.890000e+000
         vertex 2.016000e+000 -9.536745e-010 -1.890000e+000
      endloop
   endfacet
   facet normal 0.000000e+000 0.000000e+000 -1.000000e+000
      outer loop
         vertex 2.016000e+000 -9.536745e-010 -1.890000e+000
         vertex -2.441250e+000 9.706461e-002 -1.890000e+000
         vertex -2.544700e+000 1.695008e-001 -1.890000e+000
      endloop
   endfacet
   facet normal 0.000000e+000 0.000000e+000 -1.000000e+000
      outer loop
         vertex 2.016000e+000 -9.536745e-010 -1.890000e+000
         vertex -2.544700e+000 1.695008e-001 -1.890000e+000
         vertex 2.141808e+000 1.100683e-002 -1.890000e+000
      endloop
   endfacet
   facet normal 0.000000e+000 0.000000e+000 -1.000000e+000
      outer loop
         vertex 2.141808e+000 1.100683e-002 -1.890000e+000
         vertex -2.544700e+000 1.695008e-001 -1.890000e+000
         vertex -2.633999e+000 2.588004e-001 -1.890000e+000
      endloop
   endfacet
   facet normal 0.000000e+000 0.000000e+000 -1.000000e+000
      outer loop
         vertex 2.141808e+000 1.100683e-002 -1.890000e+000
         vertex -2.633999e+000 2.588004e-001 -1.890000e+000
         vertex 2.263794e+000 4.369271e-002 -1.890000e+000
      endloop
   endfacet
   facet normal 0.000000e+000 0.000000e+000 -1.000000e+000
      outer loop
         vertex 2.263794e+000 4.369271e-002 -1.890000e+000
         vertex -2.633999e+000 2.588004e-001 -1.890000e+000
         vertex -2.706435e+000 3.622500e-001 -1.890000e+000
      endloop
   endfacet
   facet normal 0.000000e+000 0.000000e+000 -1.000000e+000
      outer loop
         vertex 2.263794e+000 4.369271e-002 -1.890000e+000
         vertex -2.706435e+000 3.622500e-001 -1.890000e+000
         vertex 2.378250e+000 9.706461e-002 -1.890000e+000
      endloop
   endfacet
   facet normal 0.000000e+000 0.000000e+000 -1.000000e+000
      outer loop
         vertex 2.378250e+000 9.706461e-002 -1.890000e+000
         vertex -2.706435e+000 3.622500e-001 -1.890000e+000
         vertex -2.759807e+000 4.767064e-001 -1.890000e+000
      endloop
   endfacet
   facet normal 0.000000e+000 0.000000e+000 -1.000000e+000
      outer loop
         vertex 2.378250e+000 9.706461e-002 -1.890000e+000
         vertex -2.759807e+000 4.767064e-001 -1.890000e+000
         vertex 2.481700e+000 1.695008e-001 -1.890000e+000
      endloop
   endfacet
   facet normal 0.000000e+000 0.000000e+000 -1.000000e+000
      outer loop
         vertex 2.481700e+000 1.695008e-001 -1.890000e+000
         vertex -2.759807e+000 4.767064e-001 -1.890000e+000
         vertex -2.792493e+000 5.986919e-001 -1.890000e+000
      endloop
   endfacet
   facet normal 0.000000e+000 0.000000e+000 -1.000000e+000
      outer loop
         vertex 2.481700e+000 1.695008e-001 -1.890000e+000
         vertex -2.792493e+000 5.986919e-001 -1.890000e+000
         vertex 2.570999e+000 2.588004e-001 -1.890000e+000
      endloop
   endfacet
   facet normal 0.000000e+000 0.000000e+000 -1.000000e+000
      outer loop
         vertex 2.570999e+000 2.588004e-001 -1.890000e+000
         vertex -2.792493e+000 5.986919e-001 -1.890000e+000
         vertex -2.803500e+000 7.245000e-001 -1.890000e+000
      endloop
   endfacet
   facet normal 0.000000e+000 0.000000e+000 -1.000000e+000
      outer loop
         vertex 2.570999e+000 2.588004e-001 -1.890000e+000
         vertex -2.803500e+000 7.245000e-001 -1.890000e+000
         vertex 2.643435e+000 3.622500e-001 -1.890000e+000
      endloop
   endfacet
   facet normal 0.000000e+000 0.000000e+000 -1.000000e+000
      outer loop
         vertex 2.643435e+000 3.622500e-001 -1.890000e+000
         vertex -2.803500e+000 7.245000e-001 -1.890000e+000
         vertex -2.792493e+000 8.503081e-001 -1.890000e+000
      endloop
   endfacet
   facet normal 0.000000e+000 0.000000e+000 -1.000000e+000
      outer loop
         vertex 2.643435e+000 3.622500e-001 -1.890000e+000
         vertex -2.792493e+000 8.503081e-001 -1.890000e+000
         vertex 2.696807e+000 4.767064e-001 -1.890000e+000
      endloop
   endfacet
   facet normal 0.000000e+000 0.000000e+000 -1.000000e+000
      outer loop
         vertex 2.696807e+000 4.767064e-001 -1.890000e+000
         vertex -2.792493e+000 8.503081e-001 -1.890000e+000
         vertex -2.759807e+000 9.722936e-001 -1.890000e+000
      endloop
   endfacet
   facet normal 0.000000e+000 0.000000e+000 -1.000000e+000
      outer loop
         vertex 2.696807e+000 4.767064e-001 -1.890000e+000
         vertex -2.759807e+000 9.722936e-001 -1.890000e+000
         vertex 2.729493e+000 5.986919e-001 -1.890000e+000
      endloop
   endfacet
   facet normal 0.000000e+000 0.000000e+000 -1.000000e+000
      outer loop
         vertex 2.729493e+000 5.986919e-001 -1.890000e+000
         vertex -2.759807e+000 9.722936e-001 -1.890000e+000
         vertex -2.706435e+000 1.086750e+000 -1.890000e+000
      endloop
   endfacet
   facet normal 0.000000e+000 0.000000e+000 -1.000000e+000
      outer loop
         vertex 2.729493e+000 5.986919e-001 -1.890000e+000
         vertex -2.706435e+000 1.086750e+000 -1.890000e+000
         vertex 2.740500e+000 7.245000e-001 -1.890000e+000
      endloop
   endfacet
   facet normal 0.000000e+000 0.000000e+000 -1.000000e+000
      outer loop
         vertex 2.740500e+000 7.245000e-001 -1.890000e+000
         vertex -2.706435e+000 1.086750e+000 -1.890000e+000
         vertex -2.633999e+000 1.190200e+000 -1.890000e+000
      endloop
   endfacet
   facet normal 0.000000e+000 0.000000e+000 -1.000000e+000
      outer loop
         vertex 2.740500e+000 7.245000e-001 -1.890000e+000
         vertex -2.633999e+000 1.190200e+000 -1.890000e+000
         vertex 2.729493e+000 8.503081e-001 -1.890000e+000
      endloop
   endfacet
   facet normal 0.000000e+000 0.000000e+000 -1.000000e+000
      outer loop
         vertex 2.729493e+000 8.503081e-001 -1.890000e+000
         vertex -2.633999e+000 1.190200e+000 -1.890000e+000
         vertex -2.544700e+000 1.279499e+000 -1.890000e+000
      endloop
   endfacet
   facet normal 0.000000e+000 0.000000e+000 -1.000000e+000
      outer loop
         vertex 2.729493e+000 8.503081e-001 -1.890000e+000
         vertex -2.544700e+000 1.279499e+000 -1.890000e+000
         vertex 2.696807e+000 9.722936e-001 -1.890000e+000
      endloop
   endfacet
   facet normal 0.000000e+000 0.000000e+000 -1.000000e+000
      outer loop
         vertex 2.696807e+000 9.722936e-001 -1.890000e+000
         vertex -2.544700e+000 1.279499e+000 -1.890000e+000
         vertex -2.441250e+000 1.351935e+000 -1.890000e+000
      endloop
   endfacet
   facet normal 0.000000e+000 0.000000e+000 -1.000000e+000
      outer loop
         vertex 2.696807e+000 9.722936e-001 -1.890000e+000
         vertex -2.441250e+000 1.351935e+000 -1.890000e+000
         vertex 2.643435e+000 1.086750e+000 -1.890000e+000
      endloop
   endfacet
   facet normal 0.000000e+000 0.000000e+000 -1.000000e+000
      outer loop
         vertex 2.643435e+000 1.086750e+000 -1.890000e+000
         vertex -2.441250e+000 1.351935e+000 -1.890000e+000
         vertex -2.326794e+000 1.405307e+000 -1.890000e+000
      endloop
   endfacet
   facet normal 0.000000e+000 0.000000e+000 -1.000000e+000
      outer loop
         vertex 2.643435e+000 1.086750e+000 -1.890000e+000
         vertex -2.326794e+000 1.405307e+000 -1.890000e+000
         vertex 2.570999e+000 1.190200e+000 -1.890000e+000
      endloop
   endfacet
   facet normal 0.000000e+000 0.000000e+000 -1.000000e+000
      outer loop
         vertex 2.570999e+000 1.190200e+000 -1.890000e+000
         vertex -2.326794e+000 1.405307e+000 -1.890000e+000
         vertex -2.204808e+000 1.437993e+000 -1.890000e+000
      endloop
   endfacet
   facet normal 0.000000e+000 0.000000e+000 -1.000000e+000
      outer loop
         vertex 2.570999e+000 1.190200e+000 -1.890000e+000
         vertex -2.204808e+000 1.437993e+000 -1.890000e+000
         vertex 2.481700e+000 1.279499e+000 -1.890000e+000
      endloop
   endfacet
   facet normal 0.000000e+000 0.000000e+000 -1.000000e+000
      outer loop
         vertex 2.481700e+000 1.279499e+000 -1.890000e+000
         vertex -2.204808e+000 1.437993e+000 -1.890000e+000
         vertex -2.079000e+000 1.449000e+000 -1.890000e+000
      endloop
   endfacet
   facet normal 0.000000e+000 0.000000e+000 -1.000000e+000
      outer loop
         vertex 2.481700e+000 1.279499e+000 -1.890000e+000
         vertex -2.079000e+000 1.449000e+000 -1.890000e+000
         vertex 2.378250e+000 1.351935e+000 -1.890000e+000
      endloop
   endfacet
   facet normal 0.000000e+000 0.000000e+000 -1.000000e+000
      outer loop
         vertex 2.378250e+000 1.351935e+000 -1.890000e+000
         vertex -2.079000e+000 1.449000e+000 -1.890000e+000
         vertex 2.016000e+000 1.449000e+000 -1.890000e+000
      endloop
   endfacet
   facet normal 0.000000e+000 0.000000e+000 -1.000000e+000
      outer loop
         vertex 2.378250e+000 1.351935e+000 -1.890000e+000
         vertex 2.016000e+000 1.449000e+000 -1.890000e+000
         vertex 2.263794e+000 1.405307e+000 -1.890000e+000
      endloop
   endfacet
   facet normal 0.000000e+000 0.000000e+000 -1.000000e+000
      outer loop
         vertex 2.263794e+000 1.405307e+000 -1.890000e+000
         vertex 2.016000e+000 1.449000e+000 -1.890000e+000
         vertex 2.141808e+000 1.437993e+000 -1.890000e+000
      endloop
   endfacet
   facet normal -3.632053e-016 0.000000e+000 -1.000000e+000
      outer loop
         vertex 1.182000e+000 -9.536745e-010 1.008000e+000
         vertex 1.182000e+000 1.449000e+000 1.008000e+000
         vertex 2.016000e+000 -9.536745e-010 1.008000e+000
      endloop
   endfacet
   facet normal -3.632053e-016 0.000000e+000 -1.000000e+000
      outer loop
         vertex 2.016000e+000 -9.536745e-010 1.008000e+000
         vertex 1.182000e+000 1.449000e+000 1.008000e+000
         vertex 2.016000e+000 1.449000e+000 1.008000e+000
      endloop
   endfacet
   facet normal -3.632053e-016 0.000000e+000 -1.000000e+000
      outer loop
         vertex 2.016000e+000 -9.536745e-010 1.008000e+000
         vertex 2.016000e+000 1.449000e+000 1.008000e+000
         vertex 2.141808e+000 1.100683e-002 1.008000e+000
      endloop
   endfacet
   facet normal -3.632053e-016 0.000000e+000 -1.000000e+000
      outer loop
         vertex 2.141808e+000 1.100683e-002 1.008000e+000
         vertex 2.016000e+000 1.449000e+000 1.008000e+000
         vertex 2.141808e+000 1.437993e+000 1.008000e+000
      endloop
   endfacet
   facet normal -3.632053e-016 0.000000e+000 -1.000000e+000
      outer loop
         vertex 2.141808e+000 1.100683e-002 1.008000e+000
         vertex 2.141808e+000 1.437993e+000 1.008000e+000
         vertex 2.263794e+000 4.369271e-002 1.008000e+000
      endloop
   endfacet
   facet normal -3.632053e-016 0.000000e+000 -1.000000e+000
      outer loop
         vertex 2.263794e+000 4.369271e-002 1.008000e+000
         vertex 2.141808e+000 1.437993e+000 1.008000e+000
         vertex 2.263794e+000 1.405307e+000 1.008000e+000
      endloop
   endfacet
   facet normal -3.632053e-016 0.000000e+000 -1.000000e+000
      outer loop
         vertex 2.263794e+000 4.369271e-002 1.008000e+000
         vertex 2.263794e+000 1.405307e+000 1.008000e+000
         vertex 2.378250e+000 9.706461e-002 1.008000e+000
      endloop
   endfacet
   facet normal -3.632053e-016 0.000000e+000 -1.000000e+000
      outer loop
         vertex 2.378250e+000 9.706461e-002 1.008000e+000
         vertex 2.263794e+000 1.405307e+000 1.008000e+000
         vertex 2.378250e+000 1.351935e+000 1.008000e+000
      endloop
   endfacet
   facet normal -3.632053e-016 0.000000e+000 -1.000000e+000
      outer loop
         vertex 2.378250e+000 9.706461e-002 1.008000e+000
         vertex 2.378250e+000 1.351935e+000 1.008000e+000
         vertex 2.481700e+000 1.695008e-001 1.008000e+000
      endloop
   endfacet
   facet normal -3.632053e-016 0.000000e+000 -1.000000e+000
      outer loop
         vertex 2.481700e+000 1.695008e-001 1.008000e+000
         vertex 2.378250e+000 1.351935e+000 1.008000e+000
         vertex 2.481700e+000 1.279499e+000 1.008000e+000
      endloop
   endfacet
   facet normal -3.632053e-016 0.000000e+000 -1.000000e+000
      outer loop
         vertex 2.481700e+000 1.695008e-001 1.008000e+000
         vertex 2.481700e+000 1.279499e+000 1.008000e+000
         vertex 2.570999e+000 2.588004e-001 1.008000e+000
      endloop
   endfacet
   facet normal -3.632053e-016 0.000000e+000 -1.000000e+000
      outer loop
         vertex 2.570999e+000 2.588004e-001 1.008000e+000
         vertex 2.481700e+000 1.279499e+000 1.008000e+000
         vertex 2.570999e+000 1.190200e+000 1.008000e+000
      endloop
   endfacet
   facet normal -3.632053e-016 0.000000e+000 -1.000000e+000
      outer loop
         vertex 2.570999e+000 2.588004e-001 1.008000e+000
         vertex 2.570999e+000 1.190200e+000 1.008000e+000
         vertex 2.643435e+000 3.622500e-001 1.008000e+000
      endloop
   endfacet
   facet normal -3.632053e-016 0.000000e+000 -1.000000e+000
      outer loop
         vertex 2.643435e+000 3.622500e-001 1.008000e+000
         vertex 2.570999e+000 1.190200e+000 1.008000e+000
         vertex 2.643435e+000 1.086750e+000 1.008000e+000
      endloop
   endfacet
   facet normal -3.632053e-016 0.000000e+000 -1.000000e+000
      outer loop
         vertex 2.643435e+000 3.622500e-001 1.008000e+000
         vertex 2.643435e+000 1.086750e+000 1.008000e+000
         vertex 2.696807e+000 4.767064e-001 1.008000e+000
      endloop
   endfacet
   facet normal -3.632053e-016 0.000000e+000 -1.000000e+000
      outer loop
         vertex 2.696807e+000 4.767064e-001 1.008000e+000
         vertex 2.643435e+000 1.086750e+000 1.008000e+000
         vertex 2.696807e+000 9.722936e-001 1.008000e+000
      endloop
   endfacet
   facet normal -3.632053e-016 0.000000e+000 -1.000000e+000
      outer loop
         vertex 2.696807e+000 4.767064e-001 1.008000e+000
         vertex 2.696807e+000 9.722936e-001 1.008000e+000
         vertex 2.729493e+000 5.986919e-001 1.008000e+000
      endloop
   endfacet
   facet normal -3.632053e-016 0.000000e+000 -1.000000e+000
      outer loop
         vertex 2.729493e+000 5.986919e-001 1.008000e+000
         vertex 2.696807e+000 9.722936e-001 1.008000e+000
         vertex 2.729493e+000 8.503081e-001 1.008000e+000
      endloop
   endfacet
   facet normal -3.632053e-016 0.000000e+000 -1.000000e+000
      outer loop
         vertex 2.729493e+000 5.986919e-001 1.008000e+000
         vertex 2.729493e+000 8.503081e-001 1.008000e+000
         vertex 2.740500e+000 7.245000e-001 1.008000e+000
      endloop
   endfacet
   facet normal 0.000000e+000 0.000000e+000 1.000000e+000
      outer loop
         vertex 2.141808e+000 1.100683e-002 -1.008000e+000
         vertex 2.263794e+000 4.369271e-002 -1.008000e+000
         vertex 2.016000e+000 -9.536745e-010 -1.008000e+000
      endloop
   endfacet
   facet normal 0.000000e+000 0.000000e+000 1.000000e+000
      outer loop
         vertex 2.016000e+000 -9.536745e-010 -1.008000e+000
         vertex 2.263794e+000 4.369271e-002 -1.008000e+000
         vertex 2.378250e+000 9.706461e-002 -1.008000e+000
      endloop
   endfacet
   facet normal 0.000000e+000 0.000000e+000 1.000000e+000
      outer loop
         vertex 2.016000e+000 -9.536745e-010 -1.008000e+000
         vertex 2.378250e+000 9.706461e-002 -1.008000e+000
         vertex 1.182000e+000 -9.536745e-010 -1.008000e+000
      endloop
   endfacet
   facet normal 0.000000e+000 0.000000e+000 1.000000e+000
      outer loop
         vertex 1.182000e+000 -9.536745e-010 -1.008000e+000
         vertex 2.378250e+000 9.706461e-002 -1.008000e+000
         vertex 2.481700e+000 1.695008e-001 -1.008000e+000
      endloop
   endfacet
   facet normal 0.000000e+000 0.000000e+000 1.000000e+000
      outer loop
         vertex 1.182000e+000 -9.536745e-010 -1.008000e+000
         vertex 2.481700e+000 1.695008e-001 -1.008000e+000
         vertex 1.182000e+000 1.449000e+000 -1.008000e+000
      endloop
   endfacet
   facet normal 0.000000e+000 0.000000e+000 1.000000e+000
      outer loop
         vertex 1.182000e+000 1.449000e+000 -1.008000e+000
         vertex 2.481700e+000 1.695008e-001 -1.008000e+000
         vertex 2.570999e+000 2.588004e-001 -1.008000e+000
      endloop
   endfacet
   facet normal 0.000000e+000 0.000000e+000 1.000000e+000
      outer loop
         vertex 1.182000e+000 1.449000e+000 -1.008000e+000
         vertex 2.570999e+000 2.588004e-001 -1.008000e+000
         vertex 2.016000e+000 1.449000e+000 -1.008000e+000
      endloop
   endfacet
   facet normal 0.000000e+000 0.000000e+000 1.000000e+000
      outer loop
         vertex 2.016000e+000 1.449000e+000 -1.008000e+000
         vertex 2.570999e+000 2.588004e-001 -1.008000e+000
         vertex 2.643435e+000 3.622500e-001 -1.008000e+000
      endloop
   endfacet
   facet normal 0.000000e+000 0.000000e+000 1.000000e+000
      outer loop
         vertex 2.016000e+000 1.449000e+000 -1.008000e+000
         vertex 2.643435e+000 3.622500e-001 -1.008000e+000
         vertex 2.141808e+000 1.437993e+000 -1.008000e+000
      endloop
   endfacet
   facet normal 0.000000e+000 0.000000e+000 1.000000e+000
      outer loop
         vertex 2.141808e+000 1.437993e+000 -1.008000e+000
         vertex 2.643435e+000 3.622500e-001 -1.008000e+000
         vertex 2.696807e+000 4.767064e-001 -1.008000e+000
      endloop
   endfacet
   facet normal 0.000000e+000 0.000000e+000 1.000000e+000
      outer loop
         vertex 2.141808e+000 1.437993e+000 -1.008000e+000
         vertex 2.696807e+000 4.767064e-001 -1.008000e+000
         vertex 2.263794e+000 1.405307e+000 -1.008000e+000
      endloop
   endfacet
   facet normal 0.000000e+000 0.000000e+000 1.000000e+000
      outer loop
         vertex 2.263794e+000 1.405307e+000 -1.008000e+000
         vertex 2.696807e+000 4.767064e-001 -1.008000e+000
         vertex 2.729493e+000 5.986919e-001 -1.008000e+000
      endloop
   endfacet
   facet normal 0.000000e+000 0.000000e+000 1.000000e+000
      outer loop
         vertex 2.263794e+000 1.405307e+000 -1.008000e+000
         vertex 2.729493e+000 5.986919e-001 -1.008000e+000
         vertex 2.378250e+000 1.351935e+000 -1.008000e+000
      endloop
   endfacet
   facet normal 0.000000e+000 0.000000e+000 1.000000e+000
      outer loop
         vertex 2.378250e+000 1.351935e+000 -1.008000e+000
         vertex 2.729493e+000 5.986919e-001 -1.008000e+000
         vertex 2.740500e+000 7.245000e-001 -1.008000e+000
      endloop
   endfacet
   facet normal 0.000000e+000 0.000000e+000 1.000000e+000
      outer loop
         vertex 2.378250e+000 1.351935e+000 -1.008000e+000
         vertex 2.740500e+000 7.245000e-001 -1.008000e+000
         vertex 2.481700e+000 1.279499e+000 -1.008000e+000
      endloop
   endfacet
   facet normal 0.000000e+000 0.000000e+000 1.000000e+000
      outer loop
         vertex 2.481700e+000 1.279499e+000 -1.008000e+000
         vertex 2.740500e+000 7.245000e-001 -1.008000e+000
         vertex 2.729493e+000 8.503081e-001 -1.008000e+000
      endloop
   endfacet
   facet normal 0.000000e+000 0.000000e+000 1.000000e+000
      outer loop
         vertex 2.481700e+000 1.279499e+000 -1.008000e+000
         vertex 2.729493e+000 8.503081e-001 -1.008000e+000
         vertex 2.570999e+000 1.190200e+000 -1.008000e+000
      endloop
   endfacet
   facet normal 0.000000e+000 0.000000e+000 1.000000e+000
      outer loop
         vertex 2.570999e+000 1.190200e+000 -1.008000e+000
         vertex 2.729493e+000 8.503081e-001 -1.008000e+000
         vertex 2.696807e+000 9.722936e-001 -1.008000e+000
      endloop
   endfacet
   facet normal 0.000000e+000 0.000000e+000 1.000000e+000
      outer loop
         vertex 2.570999e+000 1.190200e+000 -1.008000e+000
         vertex 2.696807e+000 9.722936e-001 -1.008000e+000
         vertex 2.643435e+000 1.086750e+000 -1.008000e+000
      endloop
   endfacet
   facet normal 1.000000e+000 2.408000e-032 -5.507058e-017
      outer loop
         vertex 8.820000e-001 -9.536745e-010 7.080000e-001
         vertex 8.820000e-001 -9.536745e-010 -7.080000e-001
         vertex 8.820000e-001 1.449000e+000 7.080000e-001
      endloop
   endfacet
   facet normal 1.000000e+000 2.408000e-032 -5.507058e-017
      outer loop
         vertex 8.820000e-001 1.449000e+000 7.080000e-001
         vertex 8.820000e-001 -9.536745e-010 -7.080000e-001
         vertex 8.820000e-001 1.449000e+000 -7.080000e-001
      endloop
   endfacet
   facet normal 3.632053e-016 0.000000e+000 -1.000000e+000
      outer loop
         vertex -2.204808e+000 1.100683e-002 1.008000e+000
         vertex -2.326794e+000 4.369271e-002 1.008000e+000
         vertex -2.079000e+000 -9.536745e-010 1.008000e+000
      endloop
   endfacet
   facet normal 3.632053e-016 0.000000e+000 -1.000000e+000
      outer loop
         vertex -2.079000e+000 -9.536745e-010 1.008000e+000
         vertex -2.326794e+000 4.369271e-002 1.008000e+000
         vertex -2.441250e+000 9.706461e-002 1.008000e+000
      endloop
   endfacet
   facet normal 3.632053e-016 0.000000e+000 -1.000000e+000
      outer loop
         vertex -2.079000e+000 -9.536745e-010 1.008000e+000
         vertex -2.441250e+000 9.706461e-002 1.008000e+000
         vertex -1.182000e+000 -9.536745e-010 1.008000e+000
      endloop
   endfacet
   facet normal 3.632053e-016 0.000000e+000 -1.000000e+000
      outer loop
         vertex -1.182000e+000 -9.536745e-010 1.008000e+000
         vertex -2.441250e+000 9.706461e-002 1.008000e+000
         vertex -2.544700e+000 1.695008e-001 1.008000e+000
      endloop
   endfacet
   facet normal 3.632053e-016 0.000000e+000 -1.000000e+000
      outer loop
         vertex -1.182000e+000 -9.536745e-010 1.008000e+000
         vertex -2.544700e+000 1.695008e-001 1.008000e+000
         vertex -1.182000e+000 1.449000e+000 1.008000e+000
      endloop
   endfacet
   facet normal 3.632053e-016 0.000000e+000 -1.000000e+000
      outer loop
         vertex -1.182000e+000 1.449000e+000 1.008000e+000
         vertex -2.544700e+000 1.695008e-001 1.008000e+000
         vertex -2.633999e+000 2.588004e-001 1.008000e+000
      endloop
   endfacet
   facet normal 3.632053e-016 0.000000e+000 -1.000000e+000
      outer loop
         vertex -1.182000e+000 1.449000e+000 1.008000e+000
         vertex -2.633999e+000 2.588004e-001 1.008000e+000
         vertex -2.079000e+000 1.449000e+000 1.008000e+000
      endloop
   endfacet
   facet normal 3.632053e-016 0.000000e+000 -1.000000e+000
      outer loop
         vertex -2.079000e+000 1.449000e+000 1.008000e+000
         vertex -2.633999e+000 2.588004e-001 1.008000e+000
         vertex -2.706435e+000 3.622500e-001 1.008000e+000
      endloop
   endfacet
   facet normal 3.632053e-016 0.000000e+000 -1.000000e+000
      outer loop
         vertex -2.079000e+000 1.449000e+000 1.008000e+000
         vertex -2.706435e+000 3.622500e-001 1.008000e+000
         vertex -2.204808e+000 1.437993e+000 1.008000e+000
      endloop
   endfacet
   facet normal 3.632053e-016 0.000000e+000 -1.000000e+000
      outer loop
         vertex -2.204808e+000 1.437993e+000 1.008000e+000
         vertex -2.706435e+000 3.622500e-001 1.008000e+000
         vertex -2.759807e+000 4.767064e-001 1.008000e+000
      endloop
   endfacet
   facet normal 3.632053e-016 0.000000e+000 -1.000000e+000
      outer loop
         vertex -2.204808e+000 1.437993e+000 1.008000e+000
         vertex -2.759807e+000 4.767064e-001 1.008000e+000
         vertex -2.326794e+000 1.405307e+000 1.008000e+000
      endloop
   endfacet
   facet normal 3.632053e-016 0.000000e+000 -1.000000e+000
      outer loop
         vertex -2.326794e+000 1.405307e+000 1.008000e+000
         vertex -2.759807e+000 4.767064e-001 1.008000e+000
         vertex -2.792493e+000 5.986919e-001 1.008000e+000
      endloop
   endfacet
   facet normal 3.632053e-016 0.000000e+000 -1.000000e+000
      outer loop
         vertex -2.326794e+000 1.405307e+000 1.008000e+000
         vertex -2.792493e+000 5.986919e-001 1.008000e+000
         vertex -2.441250e+000 1.351935e+000 1.008000e+000
      endloop
   endfacet
   facet normal 3.632053e-016 0.000000e+000 -1.000000e+000
      outer loop
         vertex -2.441250e+000 1.351935e+000 1.008000e+000
         vertex -2.792493e+000 5.986919e-001 1.008000e+000
         vertex -2.803500e+000 7.245000e-001 1.008000e+000
      endloop
   endfacet
   facet normal 3.632053e-016 0.000000e+000 -1.000000e+000
      outer loop
         vertex -2.441250e+000 1.351935e+000 1.008000e+000
         vertex -2.803500e+000 7.245000e-001 1.008000e+000
         vertex -2.544700e+000 1.279499e+000 1.008000e+000
      endloop
   endfacet
   facet normal 3.632053e-016 0.000000e+000 -1.000000e+000
      outer loop
         vertex -2.544700e+000 1.279499e+000 1.008000e+000
         vertex -2.803500e+000 7.245000e-001 1.008000e+000
         vertex -2.792493e+000 8.503081e-001 1.008000e+000
      endloop
   endfacet
   facet normal 3.632053e-016 0.000000e+000 -1.000000e+000
      outer loop
         vertex -2.544700e+000 1.279499e+000 1.008000e+000
         vertex -2.792493e+000 8.503081e-001 1.008000e+000
         vertex -2.633999e+000 1.190200e+000 1.008000e+000
      endloop
   endfacet
   facet normal 3.632053e-016 0.000000e+000 -1.000000e+000
      outer loop
         vertex -2.633999e+000 1.190200e+000 1.008000e+000
         vertex -2.792493e+000 8.503081e-001 1.008000e+000
         vertex -2.759807e+000 9.722936e-001 1.008000e+000
      endloop
   endfacet
   facet normal 3.632053e-016 0.000000e+000 -1.000000e+000
      outer loop
         vertex -2.633999e+000 1.190200e+000 1.008000e+000
         vertex -2.759807e+000 9.722936e-001 1.008000e+000
         vertex -2.706435e+000 1.086750e+000 1.008000e+000
      endloop
   endfacet
   facet normal 0.000000e+000 0.000000e+000 1.000000e+000
      outer loop
         vertex -1.182000e+000 -9.536745e-010 -1.008000e+000
         vertex -1.182000e+000 1.449000e+000 -1.008000e+000
         vertex -2.079000e+000 -9.536745e-010 -1.008000e+000
      endloop
   endfacet
   facet normal 0.000000e+000 0.000000e+000 1.000000e+000
      outer loop
         vertex -2.079000e+000 -9.536745e-010 -1.008000e+000
         vertex -1.182000e+000 1.449000e+000 -1.008000e+000
         vertex -2.079000e+000 1.449000e+000 -1.008000e+000
      endloop
   endfacet
   facet normal 0.000000e+000 0.000000e+000 1.000000e+000
      outer loop
         vertex -2.079000e+000 -9.536745e-010 -1.008000e+000
         vertex -2.079000e+000 1.449000e+000 -1.008000e+000
         vertex -2.204808e+000 1.100683e-002 -1.008000e+000
      endloop
   endfacet
   facet normal 0.000000e+000 0.000000e+000 1.000000e+000
      outer loop
         vertex -2.204808e+000 1.100683e-002 -1.008000e+000
         vertex -2.079000e+000 1.449000e+000 -1.008000e+000
         vertex -2.204808e+000 1.437993e+000 -1.008000e+000
      endloop
   endfacet
   facet normal 0.000000e+000 0.000000e+000 1.000000e+000
      outer loop
         vertex -2.204808e+000 1.100683e-002 -1.008000e+000
         vertex -2.204808e+000 1.437993e+000 -1.008000e+000
         vertex -2.326794e+000 4.369271e-002 -1.008000e+000
      endloop
   endfacet
   facet normal 0.000000e+000 0.000000e+000 1.000000e+000
      outer loop
         vertex -2.326794e+000 4.369271e-002 -1.008000e+000
         vertex -2.204808e+000 1.437993e+000 -1.008000e+000
         vertex -2.326794e+000 1.405307e+000 -1.008000e+000
      endloop
   endfacet
   facet normal 0.000000e+000 0.000000e+000 1.000000e+000
      outer loop
         vertex -2.326794e+000 4.369271e-002 -1.008000e+000
         vertex -2.326794e+000 1.405307e+000 -1.008000e+000
         vertex -2.441250e+000 9.706461e-002 -1.008000e+000
      endloop
   endfacet
   facet normal 0.000000e+000 0.000000e+000 1.000000e+000
      outer loop
         vertex -2.441250e+000 9.706461e-002 -1.008000e+000
         vertex -2.326794e+000 1.405307e+000 -1.008000e+000
         vertex -2.441250e+000 1.351935e+000 -1.008000e+000
      endloop
   endfacet
   facet normal 0.000000e+000 0.000000e+000 1.000000e+000
      outer loop
         vertex -2.441250e+000 9.706461e-002 -1.008000e+000
         vertex -2.441250e+000 1.351935e+000 -1.008000e+000
         vertex -2.544700e+000 1.695008e-001 -1.008000e+000
      endloop
   endfacet
   facet normal 0.000000e+000 0.000000e+000 1.000000e+000
      outer loop
         vertex -2.544700e+000 1.695008e-001 -1.008000e+000
         vertex -2.441250e+000 1.351935e+000 -1.008000e+000
         vertex -2.544700e+000 1.279499e+000 -1.008000e+000
      endloop
   endfacet
   facet normal 0.000000e+000 0.000000e+000 1.000000e+000
      outer loop
         vertex -2.544700e+000 1.695008e-001 -1.008000e+000
         vertex -2.544700e+000 1.279499e+000 -1.008000e+000
         vertex -2.633999e+000 2.588004e-001 -1.008000e+000
      endloop
   endfacet
   facet normal 0.000000e+000 0.000000e+000 1.000000e+000
      outer loop
         vertex -2.633999e+000 2.588004e-001 -1.008000e+000
         vertex -2.544700e+000 1.279499e+000 -1.008000e+000
         vertex -2.633999e+000 1.190200e+000 -1.008000e+000
      endloop
   endfacet
   facet normal 0.000000e+000 0.000000e+000 1.000000e+000
      outer loop
         vertex -2.633999e+000 2.588004e-001 -1.008000e+000
         vertex -2.633999e+000 1.190200e+000 -1.008000e+000
         vertex -2.706435e+000 3.622500e-001 -1.008000e+000
      endloop
   endfacet
   facet normal 0.000000e+000 0.000000e+000 1.000000e+000
      outer loop
         vertex -2.706435e+000 3.622500e-001 -1.008000e+000
         vertex -2.633999e+000 1.190200e+000 -1.008000e+000
         vertex -2.706435e+000 1.086750e+000 -1.008000e+000
      endloop
   endfacet
   facet normal 0.000000e+000 0.000000e+000 1.000000e+000
      outer loop
         vertex -2.706435e+000 3.622500e-001 -1.008000e+000
         vertex -2.706435e+000 1.086750e+000 -1.008000e+000
         vertex -2.759807e+000 4.767064e-001 -1.008000e+000
      endloop
   endfacet
   facet normal 0.000000e+000 0.000000e+000 1.000000e+000
      outer loop
         vertex -2.759807e+000 4.767064e-001 -1.008000e+000
         vertex -2.706435e+000 1.086750e+000 -1.008000e+000
         vertex -2.759807e+000 9.722936e-001 -1.008000e+000
      endloop
   endfacet
   facet normal 0.000000e+000 0.000000e+000 1.000000e+000
      outer loop
         vertex -2.759807e+000 4.767064e-001 -1.008000e+000
         vertex -2.759807e+000 9.722936e-001 -1.008000e+000
         vertex -2.792493e+000 5.986919e-001 -1.008000e+000
      endloop
   endfacet
   facet normal 0.000000e+000 0.000000e+000 1.000000e+000
      outer loop
         vertex -2.792493e+000 5.986919e-001 -1.008000e+000
         vertex -2.759807e+000 9.722936e-001 -1.008000e+000
         vertex -2.792493e+000 8.503081e-001 -1.008000e+000
      endloop
   endfacet
   facet normal 0.000000e+000 0.000000e+000 1.000000e+000
      outer loop
         vertex -2.792493e+000 5.986919e-001 -1.008000e+000
         vertex -2.792493e+000 8.503081e-001 -1.008000e+000
         vertex -2.803500e+000 7.245000e-001 -1.008000e+000
      endloop
   endfacet
   facet normal -1.000000e+000 -2.408000e-032 -5.507058e-017
      outer loop
         vertex -8.820000e-001 -9.536745e-010 -7.080000e-001
         vertex -8.820000e-001 -9.536745e-010 7.080000e-001
         vertex -8.820000e-001 1.449000e+000 -7.080000e-001
      endloop
   endfacet
   facet normal -1.000000e+000 -2.408000e-032 -5.507058e-017
      outer loop
         vertex -8.820000e-001 1.449000e+000 -7.080000e-001
         vertex -8.820000e-001 -9.536745e-010 7.080000e-001
         vertex -8.820000e-001 1.449000e+000 7.080000e-001
      endloop
   endfacet
   facet normal 7.071068e-001 1.702713e-032 -7.071068e-001
      outer loop
         vertex 8.820000e-001 1.449000e+000 7.080000e-001
         vertex 1.182000e+000 1.449000e+000 1.008000e+000
         vertex 8.820000e-001 -9.536745e-010 7.080000e-001
      endloop
   endfacet
   facet normal 7.071068e-001 1.702713e-032 -7.071068e-001
      outer loop
         vertex 8.820000e-001 -9.536745e-010 7.080000e-001
         vertex 1.182000e+000 1.449000e+000 1.008000e+000
         vertex 1.182000e+000 -9.536745e-010 1.008000e+000
      endloop
   endfacet
   facet normal 7.071068e-001 1.702713e-032 7.071068e-001
      outer loop
         vertex 1.182000e+000 1.449000e+000 -1.008000e+000
         vertex 8.820000e-001 1.449000e+000 -7.080000e-001
         vertex 1.182000e+000 -9.536745e-010 -1.008000e+000
      endloop
   endfacet
   facet normal 7.071068e-001 1.702713e-032 7.071068e-001
      outer loop
         vertex 1.182000e+000 -9.536745e-010 -1.008000e+000
         vertex 8.820000e-001 1.449000e+000 -7.080000e-001
         vertex 8.820000e-001 -9.536745e-010 -7.080000e-001
      endloop
   endfacet
   facet normal -7.071068e-001 -1.702713e-032 7.071068e-001
      outer loop
         vertex -8.820000e-001 1.449000e+000 -7.080000e-001
         vertex -1.182000e+000 1.449000e+000 -1.008000e+000
         vertex -8.820000e-001 -9.536745e-010 -7.080000e-001
      endloop
   endfacet
   facet normal -7.071068e-001 -1.702713e-032 7.071068e-001
      outer loop
         vertex -8.820000e-001 -9.536745e-010 -7.080000e-001
         vertex -1.182000e+000 1.449000e+000 -1.008000e+000
         vertex -1.182000e+000 -9.536745e-010 -1.008000e+000
      endloop
   endfacet
   facet normal -7.071068e-001 -1.702713e-032 -7.071068e-001
      outer loop
         vertex -1.182000e+000 1.449000e+000 1.008000e+000
         vertex -8.820000e-001 1.449000e+000 7.080000e-001
         vertex -1.182000e+000 -9.536745e-010 1.008000e+000
      endloop
   endfacet
   facet normal -7.071068e-001 -1.702713e-032 -7.071068e-001
      outer loop
         vertex -1.182000e+000 -9.536745e-010 1.008000e+000
         vertex -8.820000e-001 1.449000e+000 7.080000e-001
         vertex -8.820000e-001 -9.536745e-010 7.080000e-001
      endloop
   endfacet
   facet normal 1.000000e+000 2.408000e-032 -2.190907e-016
      outer loop
         vertex 2.533707e-001 1.701000e+000 -2.533707e-001
         vertex 2.533707e-001 1.701000e+000 2.533707e-001
         vertex 2.533707e-001 1.449000e+000 -2.533707e-001
      endloop
   endfacet
   facet normal 1.000000e+000 2.408000e-032 -2.190907e-016
      outer loop
         vertex 2.533707e-001 1.449000e+000 -2.533707e-001
         vertex 2.533707e-001 1.701000e+000 2.533707e-001
         vertex 2.533707e-001 1.449000e+000 2.533707e-001
      endloop
   endfacet
   facet normal 0.000000e+000 0.000000e+000 -1.000000e+000
      outer loop
         vertex -2.533707e-001 1.701000e+000 -2.533707e-001
         vertex 2.533707e-001 1.701000e+000 -2.533707e-001
         vertex -2.533707e-001 1.449000e+000 -2.533707e-001
      endloop
   endfacet
   facet normal 0.000000e+000 0.000000e+000 -1.000000e+000
      outer loop
         vertex -2.533707e-001 1.449000e+000 -2.533707e-001
         vertex 2.533707e-001 1.701000e+000 -2.533707e-001
         vertex 2.533707e-001 1.449000e+000 -2.533707e-001
      endloop
   endfacet
   facet normal -1.000000e+000 -2.408000e-032 6.572719e-016
      outer loop
         vertex -2.533707e-001 1.701000e+000 2.533707e-001
         vertex -2.533707e-001 1.701000e+000 -2.533707e-001
         vertex -2.533707e-001 1.449000e+000 2.533707e-001
      endloop
   endfacet
   facet normal -1.000000e+000 -2.408000e-032 6.572719e-016
      outer loop
         vertex -2.533707e-001 1.449000e+000 2.533707e-001
         vertex -2.533707e-001 1.701000e+000 -2.533707e-001
         vertex -2.533707e-001 1.449000e+000 -2.533707e-001
      endloop
   endfacet
   facet normal 1.095453e-016 0.000000e+000 1.000000e+000
      outer loop
         vertex 2.533707e-001 1.701000e+000 2.533707e-001
         vertex -2.533707e-001 1.701000e+000 2.533707e-001
         vertex 2.533707e-001 1.449000e+000 2.533707e-001
      endloop
   endfacet
   facet normal 1.095453e-016 0.000000e+000 1.000000e+000
      outer loop
         vertex 2.533707e-001 1.449000e+000 2.533707e-001
         vertex -2.533707e-001 1.701000e+000 2.533707e-001
         vertex -2.533707e-001 1.449000e+000 2.533707e-001
      endloop
   endfacet
   facet normal -2.408000e-032 1.000000e+000 0.000000e+000
      outer loop
         vertex -2.533707e-001 1.701000e+000 -2.533707e-001
         vertex -2.533707e-001 1.701000e+000 2.533707e-001
         vertex 2.533707e-001 1.701000e+000 -2.533707e-001
      endloop
   endfacet
   facet normal -2.408000e-032 1.000000e+000 0.000000e+000
      outer loop
         vertex 2.533707e-001 1.701000e+000 -2.533707e-001
         vertex -2.533707e-001 1.701000e+000 2.533707e-001
         vertex 2.533707e-001 1.701000e+000 2.533707e-001
      endloop
   endfacet
endsolid 4