solid 5
   facet normal -9.957746e-001 -9.183095e-002 0.000000e+000
      outer loop
         vertex -1.991549e-001 -1.836619e-002 -5.670000e-001
         vertex -7.465903e-002 -1.368345e+000 -5.670000e-001
         vertex -1.991549e-001 -1.836619e-002 5.670000e-001
      endloop
   endfacet
   facet normal -9.957746e-001 -9.183095e-002 0.000000e+000
      outer loop
         vertex -1.991549e-001 -1.836619e-002 5.670000e-001
         vertex -7.465903e-002 -1.368345e+000 -5.670000e-001
         vertex -7.465903e-002 -1.368345e+000 5.670000e-001
      endloop
   endfacet
   facet normal 6.183328e-001 -7.859164e-001 0.000000e+000
      outer loop
         vertex 8.165702e-001 -6.671556e-001 5.670000e-001
         vertex -7.465903e-002 -1.368345e+000 5.670000e-001
         vertex 8.165702e-001 -6.671556e-001 -5.670000e-001
      endloop
   endfacet
   facet normal 6.183328e-001 -7.859164e-001 0.000000e+000
      outer loop
         vertex 8.165702e-001 -6.671556e-001 -5.670000e-001
         vertex -7.465903e-002 -1.368345e+000 5.670000e-001
         vertex -7.465903e-002 -1.368345e+000 -5.670000e-001
      endloop
   endfacet
   facet normal 9.831696e-001 -1.826951e-001 0.000000e+000
      outer loop
         vertex 8.678215e-001 -3.913476e-001 5.670000e-001
         vertex 8.165702e-001 -6.671556e-001 5.670000e-001
         vertex 8.678215e-001 -3.913476e-001 -5.670000e-001
      endloop
   endfacet
   facet normal 9.831696e-001 -1.826951e-001 0.000000e+000
      outer loop
         vertex 8.678215e-001 -3.913476e-001 -5.670000e-001
         vertex 8.165702e-001 -6.671556e-001 5.670000e-001
         vertex 8.165702e-001 -6.671556e-001 -5.670000e-001
      endloop
   endfacet
   facet normal 0.000000e+000 1.000000e+000 0.000000e+000
      outer loop
         vertex 1.679259e-009 2.000000e-001 5.670000e-001
         vertex 3.762366e-001 2.000000e-001 5.670000e-001
         vertex 1.679259e-009 2.000000e-001 -5.670000e-001
      endloop
   endfacet
   facet normal 0.000000e+000 1.000000e+000 0.000000e+000
      outer loop
         vertex 1.679259e-009 2.000000e-001 -5.670000e-001
         vertex 3.762366e-001 2.000000e-001 5.670000e-001
         vertex 3.762366e-001 2.000000e-001 -5.670000e-001
      endloop
   endfacet
   facet normal 0.000000e+000 0.000000e+000 1.000000e+000
      outer loop
         vertex 1.679259e-009 2.000000e-001 5.670000e-001
         vertex -5.471851e-002 1.923691e-001 5.670000e-001
         vertex 3.762366e-001 2.000000e-001 5.670000e-001
      endloop
   endfacet
   facet normal 0.000000e+000 0.000000e+000 1.000000e+000
      outer loop
         vertex 3.762366e-001 2.000000e-001 5.670000e-001
         vertex -5.471851e-002 1.923691e-001 5.670000e-001
         vertex -1.052615e-001 1.700588e-001 5.670000e-001
      endloop
   endfacet
   facet normal 0.000000e+000 0.000000e+000 1.000000e+000
      outer loop
         vertex 3.762366e-001 2.000000e-001 5.670000e-001
         vertex -1.052615e-001 1.700588e-001 5.670000e-001
         vertex 4.730940e-001 1.905290e-001 5.670000e-001
      endloop
   endfacet
   facet normal 0.000000e+000 0.000000e+000 1.000000e+000
      outer loop
         vertex 4.730940e-001 1.905290e-001 5.670000e-001
         vertex -1.052615e-001 1.700588e-001 5.670000e-001
         vertex -1.477722e-001 1.347716e-001 5.670000e-001
      endloop
   endfacet
   facet normal 0.000000e+000 0.000000e+000 1.000000e+000
      outer loop
         vertex 4.730940e-001 1.905290e-001 5.670000e-001
         vertex -1.477722e-001 1.347716e-001 5.670000e-001
         vertex 5.662819e-001 1.624747e-001 5.670000e-001
      endloop
   endfacet
   facet normal 0.000000e+000 0.000000e+000 1.000000e+000
      outer loop
         vertex 5.662819e-001 1.624747e-001 5.670000e-001
         vertex -1.477722e-001 1.347716e-001 5.670000e-001
         vertex -1.790065e-001 8.920010e-002 5.670000e-001
      endloop
   endfacet
   facet normal 0.000000e+000 0.000000e+000 1.000000e+000
      outer loop
         vertex 5.662819e-001 1.624747e-001 5.670000e-001
         vertex -1.790065e-001 8.920010e-002 5.670000e-001
         vertex 6.522701e-001 1.168999e-001 5.670000e-001
      endloop
   endfacet
   facet normal 0.000000e+000 0.000000e+000 1.000000e+000
      outer loop
         vertex 6.522701e-001 1.168999e-001 5.670000e-001
         vertex -1.790065e-001 8.920010e-002 5.670000e-001
         vertex -1.965812e-001 3.682187e-002 5.670000e-001
      endloop
   endfacet
   facet normal 0.000000e+000 0.000000e+000 1.000000e+000
      outer loop
         vertex 6.522701e-001 1.168999e-001 5.670000e-001
         vertex -1.965812e-001 3.682187e-002 5.670000e-001
         vertex 7.278011e-001 5.553126e-002 5.670000e-001
      endloop
   endfacet
   facet normal 0.000000e+000 0.000000e+000 1.000000e+000
      outer loop
         vertex 7.278011e-001 5.553126e-002 5.670000e-001
         vertex -1.965812e-001 3.682187e-002 5.670000e-001
         vertex -1.991549e-001 -1.836619e-002 5.670000e-001
      endloop
   endfacet
   facet normal 0.000000e+000 0.000000e+000 1.000000e+000
      outer loop
         vertex 7.278011e-001 5.553126e-002 5.670000e-001
         vertex -1.991549e-001 -1.836619e-002 5.670000e-001
         vertex 7.900133e-001 -1.930640e-002 5.670000e-001
      endloop
   endfacet
   facet normal 0.000000e+000 0.000000e+000 1.000000e+000
      outer loop
         vertex 7.900133e-001 -1.930640e-002 5.670000e-001
         vertex -1.991549e-001 -1.836619e-002 5.670000e-001
         vertex -7.465903e-002 -1.368345e+000 5.670000e-001
      endloop
   endfacet
   facet normal 0.000000e+000 0.000000e+000 1.000000e+000
      outer loop
         vertex 7.900133e-001 -1.930640e-002 5.670000e-001
         vertex -7.465903e-002 -1.368345e+000 5.670000e-001
         vertex 8.365500e-001 -1.047779e-001 5.670000e-001
      endloop
   endfacet
   facet normal 0.000000e+000 0.000000e+000 1.000000e+000
      outer loop
         vertex 8.365500e-001 -1.047779e-001 5.670000e-001
         vertex -7.465903e-002 -1.368345e+000 5.670000e-001
         vertex 8.165702e-001 -6.671556e-001 5.670000e-001
      endloop
   endfacet
   facet normal 0.000000e+000 0.000000e+000 1.000000e+000
      outer loop
         vertex 8.365500e-001 -1.047779e-001 5.670000e-001
         vertex 8.165702e-001 -6.671556e-001 5.670000e-001
         vertex 8.656480e-001 -1.976452e-001 5.670000e-001
      endloop
   endfacet
   facet normal 0.000000e+000 0.000000e+000 1.000000e+000
      outer loop
         vertex 8.656480e-001 -1.976452e-001 5.670000e-001
         vertex 8.165702e-001 -6.671556e-001 5.670000e-001
         vertex 8.678215e-001 -3.913476e-001 5.670000e-001
      endloop
   endfacet
   facet normal 0.000000e+000 0.000000e+000 1.000000e+000
      outer loop
         vertex 8.656480e-001 -1.976452e-001 5.670000e-001
         vertex 8.678215e-001 -3.913476e-001 5.670000e-001
         vertex 8.762052e-001 -2.943901e-001 5.670000e-001
      endloop
   endfacet
   facet normal 0.000000e+000 0.000000e+000 -1.000000e+000
      outer loop
         vertex 4.730940e-001 1.905290e-001 -5.670000e-001
         vertex 5.662819e-001 1.624747e-001 -5.670000e-001
         vertex 3.762366e-001 2.000000e-001 -5.670000e-001
      endloop
   endfacet
   facet normal 0.000000e+000 0.000000e+000 -1.000000e+000
      outer loop
         vertex 3.762366e-001 2.000000e-001 -5.670000e-001
         vertex 5.662819e-001 1.624747e-001 -5.670000e-001
         vertex 6.522701e-001 1.168999e-001 -5.670000e-001
      endloop
   endfacet
   facet normal 0.000000e+000 0.000000e+000 -1.000000e+000
      outer loop
         vertex 3.762366e-001 2.000000e-001 -5.670000e-001
         vertex 6.522701e-001 1.168999e-001 -5.670000e-001
         vertex 1.679259e-009 2.000000e-001 -5.670000e-001
      endloop
   endfacet
   facet normal 0.000000e+000 0.000000e+000 -1.000000e+000
      outer loop
         vertex 1.679259e-009 2.000000e-001 -5.670000e-001
         vertex 6.522701e-001 1.168999e-001 -5.670000e-001
         vertex 7.278011e-001 5.553126e-002 -5.670000e-001
      endloop
   endfacet
   facet normal 0.000000e+000 0.000000e+000 -1.000000e+000
      outer loop
         vertex 1.679259e-009 2.000000e-001 -5.670000e-001
         vertex 7.278011e-001 5.553126e-002 -5.670000e-001
         vertex -5.471851e-002 1.923691e-001 -5.670000e-001
      endloop
   endfacet
   facet normal 0.000000e+000 0.000000e+000 -1.000000e+000
      outer loop
         vertex -5.471851e-002 1.923691e-001 -5.670000e-001
         vertex 7.278011e-001 5.553126e-002 -5.670000e-001
         vertex 7.900133e-001 -1.930640e-002 -5.670000e-001
      endloop
   endfacet
   facet normal 0.000000e+000 0.000000e+000 -1.000000e+000
      outer loop
         vertex -5.471851e-002 1.923691e-001 -5.670000e-001
         vertex 7.900133e-001 -1.930640e-002 -5.670000e-001
         vertex -1.052615e-001 1.700588e-001 -5.670000e-001
      endloop
   endfacet
   facet normal 0.000000e+000 0.000000e+000 -1.000000e+000
      outer loop
         vertex -1.052615e-001 1.700588e-001 -5.670000e-001
         vertex 7.900133e-001 -1.930640e-002 -5.670000e-001
         vertex 8.365500e-001 -1.047779e-001 -5.670000e-001
      endloop
   endfacet
   facet normal 0.000000e+000 0.000000e+000 -1.000000e+000
      outer loop
         vertex -1.052615e-001 1.700588e-001 -5.670000e-001
         vertex 8.365500e-001 -1.047779e-001 -5.670000e-001
         vertex -1.477722e-001 1.347716e-001 -5.670000e-001
      endloop
   endfacet
   facet normal 0.000000e+000 0.000000e+000 -1.000000e+000
      outer loop
         vertex -1.477722e-001 1.347716e-001 -5.670000e-001
         vertex 8.365500e-001 -1.047779e-001 -5.670000e-001
         vertex 8.656480e-001 -1.976452e-001 -5.670000e-001
      endloop
   endfacet
   facet normal 0.000000e+000 0.000000e+000 -1.000000e+000
      outer loop
         vertex -1.477722e-001 1.347716e-001 -5.670000e-001
         vertex 8.656480e-001 -1.976452e-001 -5.670000e-001
         vertex -1.790065e-001 8.920010e-002 -5.670000e-001
      endloop
   endfacet
   facet normal 0.000000e+000 0.000000e+000 -1.000000e+000
      outer loop
         vertex -1.790065e-001 8.920010e-002 -5.670000e-001
         vertex 8.656480e-001 -1.976452e-001 -5.670000e-001
         vertex 8.762052e-001 -2.943901e-001 -5.670000e-001
      endloop
   endfacet
   facet normal 0.000000e+000 0.000000e+000 -1.000000e+000
      outer loop
         vertex -1.790065e-001 8.920010e-002 -5.670000e-001
         vertex 8.762052e-001 -2.943901e-001 -5.670000e-001
         vertex -1.965812e-001 3.682187e-002 -5.670000e-001
      endloop
   endfacet
   facet normal 0.000000e+000 0.000000e+000 -1.000000e+000
      outer loop
         vertex -1.965812e-001 3.682187e-002 -5.670000e-001
         vertex 8.762052e-001 -2.943901e-001 -5.670000e-001
         vertex 8.678215e-001 -3.913476e-001 -5.670000e-001
      endloop
   endfacet
   facet normal 0.000000e+000 0.000000e+000 -1.000000e+000
      outer loop
         vertex -1.965812e-001 3.682187e-002 -5.670000e-001
         vertex 8.678215e-001 -3.913476e-001 -5.670000e-001
         vertex -1.991549e-001 -1.836619e-002 -5.670000e-001
      endloop
   endfacet
   facet normal 0.000000e+000 0.000000e+000 -1.000000e+000
      outer loop
         vertex -1.991549e-001 -1.836619e-002 -5.670000e-001
         vertex 8.678215e-001 -3.913476e-001 -5.670000e-001
         vertex 8.165702e-001 -6.671556e-001 -5.670000e-001
      endloop
   endfacet
   facet normal 0.000000e+000 0.000000e+000 -1.000000e+000
      outer loop
         vertex -1.991549e-001 -1.836619e-002 -5.670000e-001
         vertex 8.165702e-001 -6.671556e-001 -5.670000e-001
         vertex -7.465903e-002 -1.368345e+000 -5.670000e-001
      endloop
   endfacet
   facet normal 6.484506e-002 9.978954e-001 -7.292047e-017
      outer loop
         vertex 3.762366e-001 2.000000e-001 -5.670000e-001
         vertex 3.762366e-001 2.000000e-001 5.670000e-001
         vertex 4.730940e-001 1.905290e-001 -5.670000e-001
      endloop
   endfacet
   facet normal 1.296901e-001 9.915546e-001 -7.292047e-017
      outer loop
         vertex 4.730940e-001 1.905290e-001 -5.670000e-001
         vertex 3.762366e-001 2.000000e-001 5.670000e-001
         vertex 4.730940e-001 1.905290e-001 5.670000e-001
      endloop
   endfacet
   facet normal 2.569236e-001 9.664317e-001 -1.416705e-016
      outer loop
         vertex 4.730940e-001 1.905290e-001 -5.670000e-001
         vertex 4.730940e-001 1.905290e-001 5.670000e-001
         vertex 5.662819e-001 1.624747e-001 -5.670000e-001
      endloop
   endfacet
   facet normal 3.193121e-001 9.476496e-001 -6.875001e-017
      outer loop
         vertex 5.662819e-001 1.624747e-001 -5.670000e-001
         vertex 4.730940e-001 1.905290e-001 5.670000e-001
         vertex 5.662819e-001 1.624747e-001 5.670000e-001
      endloop
   endfacet
   facet normal 4.392689e-001 8.983557e-001 -1.307250e-016
      outer loop
         vertex 5.662819e-001 1.624747e-001 -5.670000e-001
         vertex 5.662819e-001 1.624747e-001 5.670000e-001
         vertex 6.522701e-001 1.168999e-001 -5.670000e-001
      endloop
   endfacet
   facet normal 4.968372e-001 8.678437e-001 -6.197501e-017
      outer loop
         vertex 6.522701e-001 1.168999e-001 -5.670000e-001
         vertex 5.662819e-001 1.624747e-001 5.670000e-001
         vertex 6.522701e-001 1.168999e-001 5.670000e-001
      endloop
   endfacet
   facet normal 6.049728e-001 7.962462e-001 -1.148272e-016
      outer loop
         vertex 6.522701e-001 1.168999e-001 -5.670000e-001
         vertex 6.522701e-001 1.168999e-001 5.670000e-001
         vertex 7.278011e-001 5.553126e-002 -5.670000e-001
      endloop
   endfacet
   facet normal 6.555400e-001 7.551604e-001 -5.285214e-017
      outer loop
         vertex 7.278011e-001 5.553126e-002 -5.670000e-001
         vertex 6.522701e-001 1.168999e-001 5.670000e-001
         vertex 7.278011e-001 5.553126e-002 5.670000e-001
      endloop
   endfacet
   facet normal 7.477579e-001 6.639715e-001 -9.457916e-017
      outer loop
         vertex 7.278011e-001 5.553126e-002 -5.670000e-001
         vertex 7.278011e-001 5.553126e-002 5.670000e-001
         vertex 7.900133e-001 -1.930640e-002 -5.670000e-001
      endloop
   endfacet
   facet normal 7.894084e-001 6.138684e-001 -4.172702e-017
      outer loop
         vertex 7.900133e-001 -1.930640e-002 -5.670000e-001
         vertex 7.278011e-001 5.553126e-002 5.670000e-001
         vertex 7.900133e-001 -1.930640e-002 5.670000e-001
      endloop
   endfacet
   facet normal 8.622147e-001 5.065430e-001 -7.074811e-017
      outer loop
         vertex 7.900133e-001 -1.930640e-002 -5.670000e-001
         vertex 7.900133e-001 -1.930640e-002 5.670000e-001
         vertex 8.365500e-001 -1.047779e-001 -5.670000e-001
      endloop
   endfacet
   facet normal 8.933706e-001 4.493206e-001 -2.902110e-017
      outer loop
         vertex 8.365500e-001 -1.047779e-001 -5.670000e-001
         vertex 7.900133e-001 -1.930640e-002 5.670000e-001
         vertex 8.365500e-001 -1.047779e-001 5.670000e-001
      endloop
   endfacet
   facet normal 9.440073e-001 3.299244e-001 -4.423684e-017
      outer loop
         vertex 8.365500e-001 -1.047779e-001 -5.670000e-001
         vertex 8.365500e-001 -1.047779e-001 5.670000e-001
         vertex 8.656480e-001 -1.976452e-001 -5.670000e-001
      endloop
   endfacet
   facet normal 9.634882e-001 2.677506e-001 -1.521574e-017
      outer loop
         vertex 8.656480e-001 -1.976452e-001 -5.670000e-001
         vertex 8.365500e-001 -1.047779e-001 5.670000e-001
         vertex 8.656480e-001 -1.976452e-001 5.670000e-001
      endloop
   endfacet
   facet normal 9.900371e-001 1.408070e-001 -1.604969e-017
      outer loop
         vertex 8.656480e-001 -1.976452e-001 -5.670000e-001
         vertex 8.656480e-001 -1.976452e-001 5.670000e-001
         vertex 8.762052e-001 -2.943901e-001 -5.670000e-001
      endloop
   endfacet
   facet normal 9.971050e-001 7.603715e-002 -8.339494e-019
      outer loop
         vertex 8.762052e-001 -2.943901e-001 -5.670000e-001
         vertex 8.656480e-001 -1.976452e-001 5.670000e-001
         vertex 8.762052e-001 -2.943901e-001 5.670000e-001
      endloop
   endfacet
   facet normal 9.985601e-001 -5.364480e-002 1.274549e-017
      outer loop
         vertex 8.762052e-001 -2.943901e-001 -5.670000e-001
         vertex 8.762052e-001 -2.943901e-001 5.670000e-001
         vertex 8.678215e-001 -3.913476e-001 -5.670000e-001
      endloop
   endfacet
   facet normal 9.929473e-001 -1.185569e-001 1.357944e-017
      outer loop
         vertex 8.678215e-001 -3.913476e-001 -5.670000e-001
         vertex 8.762052e-001 -2.943901e-001 5.670000e-001
         vertex 8.678215e-001 -3.913476e-001 5.670000e-001
      endloop
   endfacet
   facet normal -1.000000e+000 1.504216e-004 -1.795057e-016
      outer loop
         vertex -1.991549e-001 -1.836619e-002 -5.670000e-001
         vertex -1.991549e-001 -1.836619e-002 5.670000e-001
         vertex -1.965812e-001 3.682187e-002 -5.670000e-001
      endloop
   endfacet
   facet normal -9.956735e-001 9.292045e-002 -1.795057e-016
      outer loop
         vertex -1.965812e-001 3.682187e-002 -5.670000e-001
         vertex -1.991549e-001 -1.836619e-002 5.670000e-001
         vertex -1.965812e-001 3.682187e-002 5.670000e-001
      endloop
   endfacet
   facet normal -9.618045e-001 2.737373e-001 -3.381929e-016
      outer loop
         vertex -1.965812e-001 3.682187e-002 -5.670000e-001
         vertex -1.965812e-001 3.682187e-002 5.670000e-001
         vertex -1.790065e-001 8.920010e-002 -5.670000e-001
      endloop
   endfacet
   facet normal -9.322619e-001 3.617840e-001 -1.586873e-016
      outer loop
         vertex -1.790065e-001 8.920010e-002 -5.670000e-001
         vertex -1.965812e-001 3.682187e-002 5.670000e-001
         vertex -1.790065e-001 8.920010e-002 5.670000e-001
      endloop
   endfacet
   facet normal -8.502150e-001 5.264356e-001 -2.844469e-016
      outer loop
         vertex -1.790065e-001 8.920010e-002 -5.670000e-001
         vertex -1.790065e-001 8.920010e-002 5.670000e-001
         vertex -1.477722e-001 1.347716e-001 -5.670000e-001
      endloop
   endfacet
   facet normal -7.977107e-001 6.030403e-001 -1.257596e-016
      outer loop
         vertex -1.477722e-001 1.347716e-001 -5.670000e-001
         vertex -1.790065e-001 8.920010e-002 5.670000e-001
         vertex -1.477722e-001 1.347716e-001 5.670000e-001
      endloop
   endfacet
   facet normal -6.737468e-001 7.389623e-001 -2.089950e-016
      outer loop
         vertex -1.477722e-001 1.347716e-001 -5.670000e-001
         vertex -1.477722e-001 1.347716e-001 5.670000e-001
         vertex -1.052615e-001 1.700588e-001 -5.670000e-001
      endloop
   endfacet
   facet normal -6.022872e-001 7.982795e-001 -8.323542e-017
      outer loop
         vertex -1.052615e-001 1.700588e-001 -5.670000e-001
         vertex -1.477722e-001 1.347716e-001 5.670000e-001
         vertex -1.052615e-001 1.700588e-001 5.670000e-001
      endloop
   endfacet
   facet normal -4.458658e-001 8.950998e-001 -1.175951e-016
      outer loop
         vertex -1.052615e-001 1.700588e-001 -5.670000e-001
         vertex -1.052615e-001 1.700588e-001 5.670000e-001
         vertex -5.471851e-002 1.923691e-001 -5.670000e-001
      endloop
   endfacet
   facet normal -3.609040e-001 9.326030e-001 -3.435964e-017
      outer loop
         vertex -5.471851e-002 1.923691e-001 -5.670000e-001
         vertex -1.052615e-001 1.700588e-001 5.670000e-001
         vertex -5.471851e-002 1.923691e-001 5.670000e-001
      endloop
   endfacet
   facet normal -1.839615e-001 9.829335e-001 -1.722157e-017
      outer loop
         vertex -5.471851e-002 1.923691e-001 -5.670000e-001
         vertex -5.471851e-002 1.923691e-001 5.670000e-001
         vertex 1.679259e-009 2.000000e-001 -5.670000e-001
      endloop
   endfacet
   facet normal -9.198073e-002 9.957608e-001 1.713807e-017
      outer loop
         vertex 1.679259e-009 2.000000e-001 -5.670000e-001
         vertex -5.471851e-002 1.923691e-001 5.670000e-001
         vertex 1.679259e-009 2.000000e-001 5.670000e-001
      endloop
   endfacet
endsolid 5